<svg width="579" height="537" viewBox="0 0 579 537" fill="none" xmlns="http://www.w3.org/2000/svg">
<rect y="293" width="165" height="200" rx="20" fill="#0A1229"/>
<path d="M22.31 329.03C22.31 326.636 23.962 325.446 25.628 325.446C27.308 325.446 28.96 326.636 28.96 329.03C28.96 331.424 27.308 332.614 25.628 332.614C23.962 332.614 22.31 331.424 22.31 329.03ZM20.588 329.03C20.588 332.292 23.024 334.21 25.628 334.21C28.232 334.21 30.682 332.292 30.682 329.03C30.682 325.782 28.232 323.864 25.628 323.864C23.024 323.864 20.588 325.782 20.588 329.03ZM36.2536 333.244C36.2536 333.524 36.2816 333.846 36.3096 334H37.8636C37.8356 333.748 37.7936 333.314 37.7936 332.754V327.182H36.1696V331.214C36.1696 332.11 35.6796 332.74 34.7416 332.74C33.7616 332.74 33.3696 332.026 33.3696 331.186V327.182H31.7456V331.48C31.7456 332.992 32.6976 334.196 34.3216 334.196C35.1196 334.196 35.9176 333.86 36.2536 333.244ZM43.3857 327.14C43.3157 327.126 43.1477 327.098 42.9517 327.098C42.0557 327.098 41.2997 327.532 40.9777 328.274V327.182H39.3957V334H41.0197V330.752C41.0197 329.478 41.5937 328.75 42.8537 328.75C43.0217 328.75 43.2037 328.764 43.3857 328.792V327.14ZM46.5847 332.152C46.6687 332.922 47.4247 334.21 49.3987 334.21C51.1347 334.21 51.9747 333.062 51.9747 332.026C51.9747 331.018 51.3027 330.234 50.0147 329.954L48.9787 329.744C48.5587 329.66 48.2927 329.394 48.2927 329.03C48.2927 328.61 48.6987 328.246 49.2727 328.246C50.1827 328.246 50.4767 328.876 50.5327 329.268L51.9047 328.876C51.7927 328.204 51.1767 326.972 49.2727 326.972C47.8587 326.972 46.7667 327.98 46.7667 329.17C46.7667 330.108 47.3967 330.892 48.6007 331.158L49.6087 331.382C50.1547 331.494 50.4067 331.774 50.4067 332.138C50.4067 332.558 50.0567 332.922 49.3847 332.922C48.5167 332.922 48.0547 332.376 47.9987 331.76L46.5847 332.152ZM54.1781 329.842C54.2341 329.114 54.8221 328.33 55.8441 328.33C56.9641 328.33 57.4961 329.044 57.5241 329.842H54.1781ZM57.7061 331.62C57.4821 332.292 56.9781 332.81 55.9981 332.81C54.9901 332.81 54.1781 332.068 54.1361 331.032H59.1201C59.1341 331.004 59.1621 330.78 59.1621 330.514C59.1621 328.358 57.9301 326.972 55.8301 326.972C54.1081 326.972 52.5121 328.4 52.5121 330.556C52.5121 332.866 54.1501 334.21 55.9981 334.21C57.6361 334.21 58.7141 333.244 59.0781 332.054L57.7061 331.62ZM61.8381 334V323.864H60.2141V334H61.8381ZM64.5668 329.842C64.6228 329.114 65.2108 328.33 66.2328 328.33C67.3528 328.33 67.8848 329.044 67.9128 329.842H64.5668ZM68.0948 331.62C67.8708 332.292 67.3668 332.81 66.3868 332.81C65.3788 332.81 64.5668 332.068 64.5248 331.032H69.5088C69.5228 331.004 69.5508 330.78 69.5508 330.514C69.5508 328.358 68.3188 326.972 66.2188 326.972C64.4968 326.972 62.9008 328.4 62.9008 330.556C62.9008 332.866 64.5388 334.21 66.3868 334.21C68.0248 334.21 69.1028 333.244 69.4668 332.054L68.0948 331.62ZM73.5707 328.47C74.6067 328.47 75.0687 329.142 75.2227 329.744L76.6787 329.212C76.3987 328.12 75.3907 326.972 73.5567 326.972C71.5967 326.972 70.0707 328.484 70.0707 330.584C70.0707 332.656 71.5967 334.21 73.5987 334.21C75.3907 334.21 76.4127 333.048 76.7347 331.984L75.3067 331.466C75.1527 331.984 74.6627 332.726 73.5987 332.726C72.5767 332.726 71.6947 331.956 71.6947 330.584C71.6947 329.212 72.5767 328.47 73.5707 328.47ZM79.735 325.096H78.265V326.118C78.265 326.72 77.943 327.182 77.215 327.182H76.865V328.624H78.125V332.054C78.125 333.328 78.909 334.084 80.169 334.084C80.757 334.084 81.065 333.972 81.163 333.93V332.586C81.093 332.6 80.827 332.642 80.603 332.642C80.001 332.642 79.735 332.39 79.735 331.788V328.624H81.149V327.182H79.735V325.096ZM83.9276 334V327.182H82.3176V334H83.9276ZM82.0656 324.788C82.0656 325.376 82.5416 325.838 83.1156 325.838C83.7036 325.838 84.1796 325.376 84.1796 324.788C84.1796 324.2 83.7036 323.724 83.1156 323.724C82.5416 323.724 82.0656 324.2 82.0656 324.788ZM88.5187 332.754C87.5247 332.754 86.6147 331.998 86.6147 330.584C86.6147 329.17 87.5247 328.442 88.5187 328.442C89.5267 328.442 90.4227 329.17 90.4227 330.584C90.4227 332.012 89.5267 332.754 88.5187 332.754ZM88.5187 326.972C86.4887 326.972 84.9907 328.498 84.9907 330.584C84.9907 332.684 86.4887 334.21 88.5187 334.21C90.5627 334.21 92.0607 332.684 92.0607 330.584C92.0607 328.498 90.5627 326.972 88.5187 326.972ZM94.7541 330.066C94.7541 329.17 95.2441 328.456 96.1681 328.456C97.1901 328.456 97.5681 329.128 97.5681 329.968V334H99.1921V329.688C99.1921 328.19 98.3941 326.986 96.7281 326.986C95.9721 326.986 95.1601 327.308 94.7121 328.092V327.182H93.1301V334H94.7541V330.066ZM106.638 332.754C105.644 332.754 104.734 331.998 104.734 330.584C104.734 329.17 105.644 328.442 106.638 328.442C107.646 328.442 108.542 329.17 108.542 330.584C108.542 332.012 107.646 332.754 106.638 332.754ZM106.638 326.972C104.608 326.972 103.11 328.498 103.11 330.584C103.11 332.684 104.608 334.21 106.638 334.21C108.682 334.21 110.18 332.684 110.18 330.584C110.18 328.498 108.682 326.972 106.638 326.972ZM114.273 325.25C114.581 325.25 114.763 325.292 114.861 325.32V323.934C114.749 323.878 114.413 323.794 114.007 323.794C112.607 323.794 111.627 324.718 111.627 326.244V327.182H110.437V328.596H111.627V334H113.265V328.596H114.847V327.182H113.265V326.286C113.265 325.446 113.839 325.25 114.273 325.25ZM22.632 366V365.09C23.024 365.748 23.766 366.168 24.732 366.168C26.72 366.168 27.938 364.614 27.938 362.556C27.938 360.554 26.832 359 24.788 359C23.738 359 22.954 359.49 22.646 360.022V355.864H21.05V366H22.632ZM26.3 362.57C26.3 363.914 25.53 364.726 24.466 364.726C23.43 364.726 22.632 363.914 22.632 362.57C22.632 361.212 23.43 360.442 24.466 360.442C25.544 360.442 26.3 361.212 26.3 362.57ZM30.1332 361.842C30.1892 361.114 30.7772 360.33 31.7992 360.33C32.9192 360.33 33.4512 361.044 33.4792 361.842H30.1332ZM33.6612 363.62C33.4372 364.292 32.9332 364.81 31.9532 364.81C30.9452 364.81 30.1332 364.068 30.0912 363.032H35.0752C35.0892 363.004 35.1172 362.78 35.1172 362.514C35.1172 360.358 33.8852 358.972 31.7852 358.972C30.0632 358.972 28.4672 360.4 28.4672 362.556C28.4672 364.866 30.1052 366.21 31.9532 366.21C33.5912 366.21 34.6692 365.244 35.0332 364.054L33.6612 363.62ZM37.2611 362.57C37.2611 361.268 38.0451 360.442 39.1091 360.442C40.1731 360.442 40.9011 361.254 40.9011 362.556C40.9011 363.858 40.1591 364.74 39.0951 364.74C37.9891 364.74 37.2611 363.872 37.2611 362.57ZM42.4691 355.864H40.8871V359.98C40.6771 359.546 40.0751 359 38.8851 359C36.9671 359 35.6371 360.61 35.6371 362.57C35.6371 364.628 36.9531 366.168 38.9131 366.168C39.8791 366.168 40.5931 365.692 40.9151 365.118C40.9151 365.398 40.9571 365.846 40.9851 366H42.5391C42.5251 365.888 42.4691 365.37 42.4691 364.754V355.864ZM46.149 357.096H44.679V358.118C44.679 358.72 44.357 359.182 43.629 359.182H43.279V360.624H44.539V364.054C44.539 365.328 45.323 366.084 46.583 366.084C47.171 366.084 47.479 365.972 47.577 365.93V364.586C47.507 364.6 47.241 364.642 47.017 364.642C46.415 364.642 46.149 364.39 46.149 363.788V360.624H47.563V359.182H46.149V357.096ZM50.3416 366V359.182H48.7316V366H50.3416ZM48.4796 356.788C48.4796 357.376 48.9556 357.838 49.5296 357.838C50.1176 357.838 50.5936 357.376 50.5936 356.788C50.5936 356.2 50.1176 355.724 49.5296 355.724C48.9556 355.724 48.4796 356.2 48.4796 356.788ZM53.5467 366V361.954C53.5467 361.086 54.0927 360.442 54.9607 360.442C55.8847 360.442 56.2767 361.058 56.2767 361.842V366H57.8727V361.954C57.8727 361.114 58.4327 360.442 59.2867 360.442C60.1967 360.442 60.6027 361.044 60.6027 361.842V366H62.1707V361.576C62.1707 359.77 60.9947 358.986 59.7627 358.986C58.8807 358.986 58.0827 359.294 57.5507 360.19C57.1867 359.392 56.4027 358.986 55.5067 358.986C54.7367 358.986 53.8827 359.35 53.4907 360.05V359.182H51.9367V366H53.5467ZM64.7934 361.842C64.8494 361.114 65.4374 360.33 66.4594 360.33C67.5794 360.33 68.1114 361.044 68.1394 361.842H64.7934ZM68.3214 363.62C68.0974 364.292 67.5934 364.81 66.6134 364.81C65.6054 364.81 64.7934 364.068 64.7514 363.032H69.7354C69.7494 363.004 69.7774 362.78 69.7774 362.514C69.7774 360.358 68.5454 358.972 66.4454 358.972C64.7234 358.972 63.1274 360.4 63.1274 362.556C63.1274 364.866 64.7654 366.21 66.6134 366.21C68.2514 366.21 69.3294 365.244 69.6934 364.054L68.3214 363.62ZM73.2 364.152C73.284 364.922 74.04 366.21 76.014 366.21C77.75 366.21 78.59 365.062 78.59 364.026C78.59 363.018 77.918 362.234 76.63 361.954L75.594 361.744C75.174 361.66 74.908 361.394 74.908 361.03C74.908 360.61 75.314 360.246 75.888 360.246C76.798 360.246 77.092 360.876 77.148 361.268L78.52 360.876C78.408 360.204 77.792 358.972 75.888 358.972C74.474 358.972 73.382 359.98 73.382 361.17C73.382 362.108 74.012 362.892 75.216 363.158L76.224 363.382C76.77 363.494 77.022 363.774 77.022 364.138C77.022 364.558 76.672 364.922 76 364.922C75.132 364.922 74.67 364.376 74.614 363.76L73.2 364.152ZM81.7584 357.096H80.2884V358.118C80.2884 358.72 79.9664 359.182 79.2384 359.182H78.8884V360.624H80.1484V364.054C80.1484 365.328 80.9324 366.084 82.1924 366.084C82.7804 366.084 83.0884 365.972 83.1864 365.93V364.586C83.1164 364.6 82.8504 364.642 82.6264 364.642C82.0244 364.642 81.7584 364.39 81.7584 363.788V360.624H83.1724V359.182H81.7584V357.096ZM87.2687 364.754C86.2747 364.754 85.3647 363.998 85.3647 362.584C85.3647 361.17 86.2747 360.442 87.2687 360.442C88.2767 360.442 89.1727 361.17 89.1727 362.584C89.1727 364.012 88.2767 364.754 87.2687 364.754ZM87.2687 358.972C85.2387 358.972 83.7407 360.498 83.7407 362.584C83.7407 364.684 85.2387 366.21 87.2687 366.21C89.3127 366.21 90.8107 364.684 90.8107 362.584C90.8107 360.498 89.3127 358.972 87.2687 358.972ZM95.8701 359.14C95.8001 359.126 95.6321 359.098 95.4361 359.098C94.5401 359.098 93.7841 359.532 93.4621 360.274V359.182H91.8801V366H93.5041V362.752C93.5041 361.478 94.0781 360.75 95.3381 360.75C95.5061 360.75 95.6881 360.764 95.8701 360.792V359.14ZM98.3358 366V359.182H96.7258V366H98.3358ZM96.4738 356.788C96.4738 357.376 96.9498 357.838 97.5238 357.838C98.1118 357.838 98.5878 357.376 98.5878 356.788C98.5878 356.2 98.1118 355.724 97.5238 355.724C96.9498 355.724 96.4738 356.2 96.4738 356.788ZM101.065 361.842C101.121 361.114 101.709 360.33 102.731 360.33C103.851 360.33 104.383 361.044 104.411 361.842H101.065ZM104.593 363.62C104.369 364.292 103.865 364.81 102.885 364.81C101.877 364.81 101.065 364.068 101.023 363.032H106.007C106.021 363.004 106.049 362.78 106.049 362.514C106.049 360.358 104.817 358.972 102.717 358.972C100.995 358.972 99.3989 360.4 99.3989 362.556C99.3989 364.866 101.037 366.21 102.885 366.21C104.523 366.21 105.601 365.244 105.965 364.054L104.593 363.62ZM106.499 364.152C106.583 364.922 107.339 366.21 109.313 366.21C111.049 366.21 111.889 365.062 111.889 364.026C111.889 363.018 111.217 362.234 109.929 361.954L108.893 361.744C108.473 361.66 108.207 361.394 108.207 361.03C108.207 360.61 108.613 360.246 109.187 360.246C110.097 360.246 110.391 360.876 110.447 361.268L111.819 360.876C111.707 360.204 111.091 358.972 109.187 358.972C107.773 358.972 106.681 359.98 106.681 361.17C106.681 362.108 107.311 362.892 108.515 363.158L109.523 363.382C110.069 363.494 110.321 363.774 110.321 364.138C110.321 364.558 109.971 364.922 109.299 364.922C108.431 364.922 107.969 364.376 107.913 363.76L106.499 364.152ZM25.04 391.14C24.97 391.126 24.802 391.098 24.606 391.098C23.71 391.098 22.954 391.532 22.632 392.274V391.182H21.05V398H22.674V394.752C22.674 393.478 23.248 392.75 24.508 392.75C24.676 392.75 24.858 392.764 25.04 392.792V391.14ZM25.4894 396.152C25.4894 397.23 26.3714 398.21 27.7994 398.21C28.9054 398.21 29.5774 397.65 29.8994 397.132C29.8994 397.678 29.9554 397.958 29.9694 398H31.4814C31.4674 397.93 31.3974 397.524 31.3974 396.908V393.52C31.3974 392.162 30.5994 390.972 28.4994 390.972C26.8194 390.972 25.7554 392.022 25.6294 393.198L27.1134 393.534C27.1834 392.848 27.6594 392.302 28.5134 392.302C29.4094 392.302 29.8014 392.764 29.8014 393.338C29.8014 393.576 29.6894 393.772 29.2974 393.828L27.5474 394.094C26.3854 394.262 25.4894 394.934 25.4894 396.152ZM28.1074 396.936C27.4634 396.936 27.1134 396.516 27.1134 396.054C27.1134 395.494 27.5194 395.214 28.0234 395.13L29.8014 394.864V395.172C29.8014 396.502 29.0174 396.936 28.1074 396.936ZM34.4845 394.066C34.4845 393.17 34.9745 392.456 35.8985 392.456C36.9205 392.456 37.2985 393.128 37.2985 393.968V398H38.9225V393.688C38.9225 392.19 38.1245 390.986 36.4585 390.986C35.7025 390.986 34.8905 391.308 34.4425 392.092V391.182H32.8605V398H34.4845V394.066ZM39.9096 398.378C40.0916 399.75 41.3516 400.87 43.1576 400.87C45.7196 400.87 46.6576 399.176 46.6576 397.356V391.182H45.0896V392.05C44.7956 391.49 44.1376 391.056 43.0736 391.056C41.1976 391.056 39.9236 392.554 39.9236 394.374C39.9236 396.292 41.2536 397.692 43.0736 397.692C44.0676 397.692 44.7536 397.23 45.0476 396.698V397.412C45.0476 398.798 44.4036 399.456 43.1156 399.456C42.1776 399.456 41.5196 398.826 41.4076 397.986L39.9096 398.378ZM43.3396 396.306C42.2756 396.306 41.5616 395.564 41.5616 394.374C41.5616 393.212 42.3036 392.456 43.3396 392.456C44.3476 392.456 45.0896 393.212 45.0896 394.374C45.0896 395.55 44.3756 396.306 43.3396 396.306ZM49.2778 393.842C49.3338 393.114 49.9218 392.33 50.9438 392.33C52.0638 392.33 52.5958 393.044 52.6238 393.842H49.2778ZM52.8058 395.62C52.5818 396.292 52.0778 396.81 51.0978 396.81C50.0898 396.81 49.2778 396.068 49.2358 395.032H54.2198C54.2338 395.004 54.2618 394.78 54.2618 394.514C54.2618 392.358 53.0298 390.972 50.9298 390.972C49.2078 390.972 47.6118 392.4 47.6118 394.556C47.6118 396.866 49.2498 398.21 51.0978 398.21C52.7358 398.21 53.8138 397.244 54.1778 396.054L52.8058 395.62ZM61.3103 389.25C61.6183 389.25 61.8003 389.292 61.8983 389.32V387.934C61.7863 387.878 61.4503 387.794 61.0443 387.794C59.6443 387.794 58.6643 388.718 58.6643 390.244V391.182H57.4743V392.596H58.6643V398H60.3023V392.596H61.8843V391.182H60.3023V390.286C60.3023 389.446 60.8763 389.25 61.3103 389.25ZM66.6709 391.14C66.6009 391.126 66.4329 391.098 66.2369 391.098C65.3409 391.098 64.5849 391.532 64.2629 392.274V391.182H62.6809V398H64.3049V394.752C64.3049 393.478 64.8789 392.75 66.1389 392.75C66.3069 392.75 66.4889 392.764 66.6709 392.792V391.14ZM70.4542 396.754C69.4602 396.754 68.5502 395.998 68.5502 394.584C68.5502 393.17 69.4602 392.442 70.4542 392.442C71.4622 392.442 72.3582 393.17 72.3582 394.584C72.3582 396.012 71.4622 396.754 70.4542 396.754ZM70.4542 390.972C68.4242 390.972 66.9262 392.498 66.9262 394.584C66.9262 396.684 68.4242 398.21 70.4542 398.21C72.4982 398.21 73.9962 396.684 73.9962 394.584C73.9962 392.498 72.4982 390.972 70.4542 390.972ZM76.6756 398V393.954C76.6756 393.086 77.2216 392.442 78.0896 392.442C79.0136 392.442 79.4056 393.058 79.4056 393.842V398H81.0016V393.954C81.0016 393.114 81.5616 392.442 82.4156 392.442C83.3256 392.442 83.7316 393.044 83.7316 393.842V398H85.2996V393.576C85.2996 391.77 84.1236 390.986 82.8916 390.986C82.0096 390.986 81.2116 391.294 80.6796 392.19C80.3156 391.392 79.5316 390.986 78.6356 390.986C77.8656 390.986 77.0116 391.35 76.6196 392.05V391.182H75.0656V398H76.6756ZM92.7289 392.47C93.7649 392.47 94.2269 393.142 94.3809 393.744L95.8369 393.212C95.5569 392.12 94.5489 390.972 92.7149 390.972C90.7549 390.972 89.2289 392.484 89.2289 394.584C89.2289 396.656 90.7549 398.21 92.7569 398.21C94.5489 398.21 95.5709 397.048 95.8929 395.984L94.4649 395.466C94.3109 395.984 93.8209 396.726 92.7569 396.726C91.7349 396.726 90.8529 395.956 90.8529 394.584C90.8529 393.212 91.7349 392.47 92.7289 392.47ZM98.4592 398V387.864H96.8352V398H98.4592ZM99.6066 396.152C99.6066 397.23 100.489 398.21 101.917 398.21C103.023 398.21 103.695 397.65 104.017 397.132C104.017 397.678 104.073 397.958 104.087 398H105.599C105.585 397.93 105.515 397.524 105.515 396.908V393.52C105.515 392.162 104.717 390.972 102.617 390.972C100.937 390.972 99.8726 392.022 99.7466 393.198L101.231 393.534C101.301 392.848 101.777 392.302 102.631 392.302C103.527 392.302 103.919 392.764 103.919 393.338C103.919 393.576 103.807 393.772 103.415 393.828L101.665 394.094C100.503 394.262 99.6066 394.934 99.6066 396.152ZM102.225 396.936C101.581 396.936 101.231 396.516 101.231 396.054C101.231 395.494 101.637 395.214 102.141 395.13L103.919 394.864V395.172C103.919 396.502 103.135 396.936 102.225 396.936ZM106.376 396.152C106.46 396.922 107.216 398.21 109.19 398.21C110.926 398.21 111.766 397.062 111.766 396.026C111.766 395.018 111.094 394.234 109.806 393.954L108.77 393.744C108.35 393.66 108.084 393.394 108.084 393.03C108.084 392.61 108.49 392.246 109.064 392.246C109.974 392.246 110.268 392.876 110.324 393.268L111.696 392.876C111.584 392.204 110.968 390.972 109.064 390.972C107.65 390.972 106.558 391.98 106.558 393.17C106.558 394.108 107.188 394.892 108.392 395.158L109.4 395.382C109.946 395.494 110.198 395.774 110.198 396.138C110.198 396.558 109.848 396.922 109.176 396.922C108.308 396.922 107.846 396.376 107.79 395.76L106.376 396.152ZM112.274 396.152C112.358 396.922 113.114 398.21 115.088 398.21C116.824 398.21 117.664 397.062 117.664 396.026C117.664 395.018 116.992 394.234 115.704 393.954L114.668 393.744C114.248 393.66 113.982 393.394 113.982 393.03C113.982 392.61 114.388 392.246 114.962 392.246C115.872 392.246 116.166 392.876 116.222 393.268L117.594 392.876C117.482 392.204 116.866 390.972 114.962 390.972C113.548 390.972 112.456 391.98 112.456 393.17C112.456 394.108 113.086 394.892 114.29 395.158L115.298 395.382C115.844 395.494 116.096 395.774 116.096 396.138C116.096 396.558 115.746 396.922 115.074 396.922C114.206 396.922 113.744 396.376 113.688 395.76L112.274 396.152ZM120.385 398V391.182H118.775V398H120.385ZM118.523 388.788C118.523 389.376 118.999 389.838 119.573 389.838C120.161 389.838 120.637 389.376 120.637 388.788C120.637 388.2 120.161 387.724 119.573 387.724C118.999 387.724 118.523 388.2 118.523 388.788ZM124.948 392.47C125.984 392.47 126.446 393.142 126.6 393.744L128.056 393.212C127.776 392.12 126.768 390.972 124.934 390.972C122.974 390.972 121.448 392.484 121.448 394.584C121.448 396.656 122.974 398.21 124.976 398.21C126.768 398.21 127.79 397.048 128.112 395.984L126.684 395.466C126.53 395.984 126.04 396.726 124.976 396.726C123.954 396.726 123.072 395.956 123.072 394.584C123.072 393.212 123.954 392.47 124.948 392.47ZM128.452 396.152C128.536 396.922 129.292 398.21 131.266 398.21C133.002 398.21 133.842 397.062 133.842 396.026C133.842 395.018 133.17 394.234 131.882 393.954L130.846 393.744C130.426 393.66 130.16 393.394 130.16 393.03C130.16 392.61 130.566 392.246 131.14 392.246C132.05 392.246 132.344 392.876 132.4 393.268L133.772 392.876C133.66 392.204 133.044 390.972 131.14 390.972C129.726 390.972 128.634 391.98 128.634 393.17C128.634 394.108 129.264 394.892 130.468 395.158L131.476 395.382C132.022 395.494 132.274 395.774 132.274 396.138C132.274 396.558 131.924 396.922 131.252 396.922C130.384 396.922 129.922 396.376 129.866 395.76L128.452 396.152ZM20.448 428.152C20.532 428.922 21.288 430.21 23.262 430.21C24.998 430.21 25.838 429.062 25.838 428.026C25.838 427.018 25.166 426.234 23.878 425.954L22.842 425.744C22.422 425.66 22.156 425.394 22.156 425.03C22.156 424.61 22.562 424.246 23.136 424.246C24.046 424.246 24.34 424.876 24.396 425.268L25.768 424.876C25.656 424.204 25.04 422.972 23.136 422.972C21.722 422.972 20.63 423.98 20.63 425.17C20.63 426.108 21.26 426.892 22.464 427.158L23.472 427.382C24.018 427.494 24.27 427.774 24.27 428.138C24.27 428.558 23.92 428.922 23.248 428.922C22.38 428.922 21.918 428.376 21.862 427.76L20.448 428.152ZM31.3181 429.244C31.3181 429.524 31.3461 429.846 31.3741 430H32.9281C32.9001 429.748 32.8581 429.314 32.8581 428.754V423.182H31.2341V427.214C31.2341 428.11 30.7441 428.74 29.8061 428.74C28.8261 428.74 28.4341 428.026 28.4341 427.186V423.182H26.8101V427.48C26.8101 428.992 27.7621 430.196 29.3861 430.196C30.1841 430.196 30.9821 429.86 31.3181 429.244ZM37.3871 424.47C38.4231 424.47 38.8851 425.142 39.0391 425.744L40.4951 425.212C40.2151 424.12 39.2071 422.972 37.3731 422.972C35.4131 422.972 33.8871 424.484 33.8871 426.584C33.8871 428.656 35.4131 430.21 37.4151 430.21C39.2071 430.21 40.2291 429.048 40.5511 427.984L39.1231 427.466C38.9691 427.984 38.4791 428.726 37.4151 428.726C36.3931 428.726 35.5111 427.956 35.5111 426.584C35.5111 425.212 36.3931 424.47 37.3871 424.47ZM43.1174 425.996C43.1454 425.128 43.6354 424.456 44.5314 424.456C45.5534 424.456 45.9314 425.128 45.9314 425.968V430H47.5554V425.688C47.5554 424.19 46.7434 422.986 45.0634 422.986C44.3494 422.986 43.5794 423.238 43.1174 423.84V419.864H41.4934V430H43.1174V425.996ZM51.5851 428.152C51.5851 429.23 52.4671 430.21 53.8951 430.21C55.0011 430.21 55.6731 429.65 55.9951 429.132C55.9951 429.678 56.0511 429.958 56.0651 430H57.5771C57.5631 429.93 57.4931 429.524 57.4931 428.908V425.52C57.4931 424.162 56.6951 422.972 54.5951 422.972C52.9151 422.972 51.8511 424.022 51.7251 425.198L53.2091 425.534C53.2791 424.848 53.7551 424.302 54.6091 424.302C55.5051 424.302 55.8971 424.764 55.8971 425.338C55.8971 425.576 55.7851 425.772 55.3931 425.828L53.6431 426.094C52.4811 426.262 51.5851 426.934 51.5851 428.152ZM54.2031 428.936C53.5591 428.936 53.2091 428.516 53.2091 428.054C53.2091 427.494 53.6151 427.214 54.1191 427.13L55.8971 426.864V427.172C55.8971 428.502 55.1131 428.936 54.2031 428.936ZM58.3543 428.152C58.4383 428.922 59.1943 430.21 61.1683 430.21C62.9043 430.21 63.7443 429.062 63.7443 428.026C63.7443 427.018 63.0723 426.234 61.7843 425.954L60.7483 425.744C60.3283 425.66 60.0623 425.394 60.0623 425.03C60.0623 424.61 60.4683 424.246 61.0423 424.246C61.9523 424.246 62.2463 424.876 62.3023 425.268L63.6743 424.876C63.5623 424.204 62.9463 422.972 61.0423 422.972C59.6283 422.972 58.5363 423.98 58.5363 425.17C58.5363 426.108 59.1663 426.892 60.3703 427.158L61.3783 427.382C61.9243 427.494 62.1763 427.774 62.1763 428.138C62.1763 428.558 61.8263 428.922 61.1543 428.922C60.2863 428.922 59.8243 428.376 59.7683 427.76L58.3543 428.152ZM64.7987 429.034C64.7987 429.636 65.2187 430.042 65.8067 430.042C65.9747 430.042 66.0727 430 66.1287 429.972C66.1147 430.658 65.5547 431.274 64.9387 431.414V432.198C65.8487 432.072 67.1087 431.288 67.1087 429.426C67.1087 428.572 66.6047 428.012 65.9047 428.012C65.2747 428.012 64.7987 428.474 64.7987 429.034ZM64.7847 424.232C64.7847 424.848 65.2887 425.352 65.9187 425.352C66.5347 425.352 67.0527 424.848 67.0527 424.232C67.0527 423.602 66.5347 423.098 65.9187 423.098C65.2887 423.098 64.7847 423.602 64.7847 424.232ZM73.2303 422.874C73.2303 422.314 72.8383 421.936 72.2923 421.936C72.1523 421.936 72.0263 421.992 71.9983 422.006C72.0263 421.404 72.5303 420.872 73.1043 420.76V419.99C72.2643 420.074 71.0883 420.774 71.0883 422.524C71.0883 423.294 71.5503 423.798 72.2083 423.798C72.7963 423.798 73.2303 423.378 73.2303 422.874ZM78.6508 430.21C81.1848 430.21 82.6968 428.6 83.1448 426.92L81.6048 426.416C81.2688 427.536 80.3168 428.6 78.6508 428.6C76.9568 428.6 75.3608 427.368 75.3608 425.044C75.3608 422.636 76.9988 421.446 78.6368 421.446C80.3028 421.446 81.2268 422.412 81.5208 423.616L83.1028 423.084C82.6548 421.348 81.1568 419.864 78.6368 419.864C76.0608 419.864 73.6388 421.81 73.6388 425.044C73.6388 428.278 75.9768 430.21 78.6508 430.21ZM85.8202 430V423.182H84.2102V430H85.8202ZM83.9582 420.788C83.9582 421.376 84.4342 421.838 85.0082 421.838C85.5962 421.838 86.0722 421.376 86.0722 420.788C86.0722 420.2 85.5962 419.724 85.0082 419.724C84.4342 419.724 83.9582 420.2 83.9582 420.788ZM89.0392 426.066C89.0392 425.17 89.5292 424.456 90.4532 424.456C91.4752 424.456 91.8532 425.128 91.8532 425.968V430H93.4772V425.688C93.4772 424.19 92.6792 422.986 91.0132 422.986C90.2572 422.986 89.4452 423.308 88.9972 424.092V423.182H87.4152V430H89.0392V426.066ZM96.0463 426.57C96.0463 425.268 96.8303 424.442 97.8943 424.442C98.9583 424.442 99.6863 425.254 99.6863 426.556C99.6863 427.858 98.9443 428.74 97.8803 428.74C96.7743 428.74 96.0463 427.872 96.0463 426.57ZM101.254 419.864H99.6723V423.98C99.4623 423.546 98.8603 423 97.6703 423C95.7523 423 94.4223 424.61 94.4223 426.57C94.4223 428.628 95.7383 430.168 97.6983 430.168C98.6643 430.168 99.3783 429.692 99.7003 429.118C99.7003 429.398 99.7423 429.846 99.7703 430H101.324C101.31 429.888 101.254 429.37 101.254 428.754V419.864ZM104.01 425.842C104.066 425.114 104.654 424.33 105.676 424.33C106.796 424.33 107.328 425.044 107.356 425.842H104.01ZM107.538 427.62C107.314 428.292 106.81 428.81 105.83 428.81C104.822 428.81 104.01 428.068 103.968 427.032H108.952C108.966 427.004 108.994 426.78 108.994 426.514C108.994 424.358 107.762 422.972 105.662 422.972C103.94 422.972 102.344 424.4 102.344 426.556C102.344 428.866 103.982 430.21 105.83 430.21C107.468 430.21 108.546 429.244 108.91 428.054L107.538 427.62ZM114.036 423.14C113.966 423.126 113.798 423.098 113.602 423.098C112.706 423.098 111.95 423.532 111.628 424.274V423.182H110.046V430H111.67V426.752C111.67 425.478 112.244 424.75 113.504 424.75C113.672 424.75 113.854 424.764 114.036 424.792V423.14ZM115.957 425.842C116.013 425.114 116.601 424.33 117.623 424.33C118.743 424.33 119.275 425.044 119.303 425.842H115.957ZM119.485 427.62C119.261 428.292 118.757 428.81 117.777 428.81C116.769 428.81 115.957 428.068 115.915 427.032H120.899C120.913 427.004 120.941 426.78 120.941 426.514C120.941 424.358 119.709 422.972 117.609 422.972C115.887 422.972 114.291 424.4 114.291 426.556C114.291 428.866 115.929 430.21 117.777 430.21C119.415 430.21 120.493 429.244 120.857 428.054L119.485 427.62ZM123.617 430V419.864H121.993V430H123.617ZM126.836 430V419.864H125.212V430H126.836ZM127.984 428.152C127.984 429.23 128.866 430.21 130.294 430.21C131.4 430.21 132.072 429.65 132.394 429.132C132.394 429.678 132.45 429.958 132.464 430H133.976C133.962 429.93 133.892 429.524 133.892 428.908V425.52C133.892 424.162 133.094 422.972 130.994 422.972C129.314 422.972 128.25 424.022 128.124 425.198L129.608 425.534C129.678 424.848 130.154 424.302 131.008 424.302C131.904 424.302 132.296 424.764 132.296 425.338C132.296 425.576 132.184 425.772 131.792 425.828L130.042 426.094C128.88 426.262 127.984 426.934 127.984 428.152ZM130.602 428.936C129.958 428.936 129.608 428.516 129.608 428.054C129.608 427.494 130.014 427.214 130.518 427.13L132.296 426.864V427.172C132.296 428.502 131.512 428.936 130.602 428.936ZM134.549 420.914C134.549 421.488 134.941 421.88 135.501 421.88C135.641 421.88 135.767 421.824 135.795 421.81C135.767 422.44 135.249 422.986 134.675 423.098V423.868C135.529 423.784 136.747 423.084 136.747 421.264C136.747 420.494 136.257 419.962 135.585 419.962C134.983 419.962 134.549 420.41 134.549 420.914ZM137.012 428.978C137.012 429.622 137.46 430.042 138.076 430.042C138.258 430.042 138.356 430 138.412 429.972C138.398 430.7 137.81 431.344 137.166 431.484V432.31C138.118 432.184 139.448 431.358 139.448 429.398C139.448 428.502 138.916 427.914 138.174 427.914C137.516 427.914 137.012 428.39 137.012 428.978ZM22.66 454.874C22.66 454.314 22.268 453.936 21.722 453.936C21.582 453.936 21.456 453.992 21.428 454.006C21.456 453.404 21.96 452.872 22.534 452.76V451.99C21.694 452.074 20.518 452.774 20.518 454.524C20.518 455.294 20.98 455.798 21.638 455.798C22.226 455.798 22.66 455.378 22.66 454.874ZM33.2646 459.382L30.8986 452.074H29.1486L26.8246 459.326L24.8366 452.074H23.0726L25.8866 462H27.6086L30.0166 454.496L32.4246 462H34.1606L36.9466 452.074H35.2106L33.2646 459.382ZM40.1495 460.754C39.1555 460.754 38.2455 459.998 38.2455 458.584C38.2455 457.17 39.1555 456.442 40.1495 456.442C41.1575 456.442 42.0535 457.17 42.0535 458.584C42.0535 460.012 41.1575 460.754 40.1495 460.754ZM40.1495 454.972C38.1195 454.972 36.6215 456.498 36.6215 458.584C36.6215 460.684 38.1195 462.21 40.1495 462.21C42.1935 462.21 43.6915 460.684 43.6915 458.584C43.6915 456.498 42.1935 454.972 40.1495 454.972ZM46.3849 462V451.864H44.7609V462H46.3849ZM54.1397 455.182H52.4317L50.6677 460.054L48.8617 455.182H47.0697L49.8417 462H51.4657L54.1397 455.182ZM55.7641 457.842C55.8201 457.114 56.4081 456.33 57.4301 456.33C58.5501 456.33 59.0821 457.044 59.1101 457.842H55.7641ZM59.2921 459.62C59.0681 460.292 58.5641 460.81 57.5841 460.81C56.5761 460.81 55.7641 460.068 55.7221 459.032H60.7061C60.7201 459.004 60.7481 458.78 60.7481 458.514C60.7481 456.358 59.5161 454.972 57.4161 454.972C55.6941 454.972 54.0981 456.4 54.0981 458.556C54.0981 460.866 55.7361 462.21 57.5841 462.21C59.2221 462.21 60.3001 461.244 60.6641 460.054L59.2921 459.62ZM65.79 455.14C65.72 455.126 65.552 455.098 65.356 455.098C64.46 455.098 63.704 455.532 63.382 456.274V455.182H61.8V462H63.424V458.752C63.424 457.478 63.998 456.75 65.258 456.75C65.426 456.75 65.608 456.764 65.79 456.792V455.14ZM68.2557 462V455.182H66.6457V462H68.2557ZM66.3937 452.788C66.3937 453.376 66.8697 453.838 67.4437 453.838C68.0317 453.838 68.5077 453.376 68.5077 452.788C68.5077 452.2 68.0317 451.724 67.4437 451.724C66.8697 451.724 66.3937 452.2 66.3937 452.788ZM71.4748 458.066C71.4748 457.17 71.9648 456.456 72.8888 456.456C73.9108 456.456 74.2888 457.128 74.2888 457.968V462H75.9128V457.688C75.9128 456.19 75.1148 454.986 73.4488 454.986C72.6928 454.986 71.8808 455.308 71.4328 456.092V455.182H69.8508V462H71.4748V458.066ZM78.5238 457.842C78.5798 457.114 79.1678 456.33 80.1898 456.33C81.3098 456.33 81.8418 457.044 81.8698 457.842H78.5238ZM82.0518 459.62C81.8278 460.292 81.3238 460.81 80.3438 460.81C79.3358 460.81 78.5238 460.068 78.4818 459.032H83.4658C83.4798 459.004 83.5078 458.78 83.5078 458.514C83.5078 456.358 82.2758 454.972 80.1758 454.972C78.4538 454.972 76.8578 456.4 76.8578 458.556C76.8578 460.866 78.4958 462.21 80.3438 462.21C81.9818 462.21 83.0598 461.244 83.4238 460.054L82.0518 459.62ZM83.4672 452.914C83.4672 453.488 83.8592 453.88 84.4192 453.88C84.5592 453.88 84.6852 453.824 84.7132 453.81C84.6852 454.44 84.1672 454.986 83.5932 455.098V455.868C84.4472 455.784 85.6652 455.084 85.6652 453.264C85.6652 452.494 85.1752 451.962 84.5032 451.962C83.9012 451.962 83.4672 452.41 83.4672 452.914ZM89.2784 460.152C89.2784 461.23 90.1604 462.21 91.5884 462.21C92.6944 462.21 93.3664 461.65 93.6884 461.132C93.6884 461.678 93.7444 461.958 93.7584 462H95.2704C95.2564 461.93 95.1864 461.524 95.1864 460.908V457.52C95.1864 456.162 94.3884 454.972 92.2884 454.972C90.6084 454.972 89.5444 456.022 89.4184 457.198L90.9024 457.534C90.9724 456.848 91.4484 456.302 92.3024 456.302C93.1984 456.302 93.5904 456.764 93.5904 457.338C93.5904 457.576 93.4784 457.772 93.0864 457.828L91.3364 458.094C90.1744 458.262 89.2784 458.934 89.2784 460.152ZM91.8964 460.936C91.2524 460.936 90.9024 460.516 90.9024 460.054C90.9024 459.494 91.3084 459.214 91.8124 459.13L93.5904 458.864V459.172C93.5904 460.502 92.8064 460.936 91.8964 460.936ZM98.2736 458.066C98.2736 457.17 98.7636 456.456 99.6876 456.456C100.71 456.456 101.088 457.128 101.088 457.968V462H102.712V457.688C102.712 456.19 101.914 454.986 100.248 454.986C99.4916 454.986 98.6796 455.308 98.2316 456.092V455.182H96.6496V462H98.2736V458.066ZM105.281 458.57C105.281 457.268 106.065 456.442 107.129 456.442C108.193 456.442 108.921 457.254 108.921 458.556C108.921 459.858 108.179 460.74 107.115 460.74C106.009 460.74 105.281 459.872 105.281 458.57ZM110.489 451.864H108.907V455.98C108.697 455.546 108.095 455 106.905 455C104.987 455 103.657 456.61 103.657 458.57C103.657 460.628 104.973 462.168 106.933 462.168C107.899 462.168 108.613 461.692 108.935 461.118C108.935 461.398 108.977 461.846 109.005 462H110.559C110.545 461.888 110.489 461.37 110.489 460.754V451.864ZM116.217 457.842C116.273 457.114 116.861 456.33 117.883 456.33C119.003 456.33 119.535 457.044 119.563 457.842H116.217ZM119.745 459.62C119.521 460.292 119.017 460.81 118.037 460.81C117.029 460.81 116.217 460.068 116.175 459.032H121.159C121.173 459.004 121.201 458.78 121.201 458.514C121.201 456.358 119.969 454.972 117.869 454.972C116.147 454.972 114.551 456.4 114.551 458.556C114.551 460.866 116.189 462.21 118.037 462.21C119.675 462.21 120.753 461.244 121.117 460.054L119.745 459.62ZM124.311 453.096H122.841V454.118C122.841 454.72 122.519 455.182 121.791 455.182H121.441V456.624H122.701V460.054C122.701 461.328 123.485 462.084 124.745 462.084C125.333 462.084 125.641 461.972 125.739 461.93V460.586C125.669 460.6 125.403 460.642 125.179 460.642C124.577 460.642 124.311 460.39 124.311 459.788V456.624H125.725V455.182H124.311V453.096ZM129.793 456.47C130.829 456.47 131.291 457.142 131.445 457.744L132.901 457.212C132.621 456.12 131.613 454.972 129.779 454.972C127.819 454.972 126.293 456.484 126.293 458.584C126.293 460.656 127.819 462.21 129.821 462.21C131.613 462.21 132.635 461.048 132.957 459.984L131.529 459.466C131.375 459.984 130.885 460.726 129.821 460.726C128.799 460.726 127.917 459.956 127.917 458.584C127.917 457.212 128.799 456.47 129.793 456.47ZM133.747 460.95C133.747 461.58 134.251 462.084 134.881 462.084C135.511 462.084 136.029 461.58 136.029 460.95C136.029 460.32 135.511 459.802 134.881 459.802C134.251 459.802 133.747 460.32 133.747 460.95Z" fill="#486BD1"/>
<path d="M207 505C207 487.327 221.327 473 239 473H579V509.419C579 524.652 566.652 537 551.419 537H239C221.327 537 207 522.673 207 505Z" fill="#0A1229"/>
<rect width="3" height="8" rx="1" transform="matrix(-1 0 0 1 252 501)" fill="#486BD1"/>
<rect width="3" height="8" rx="1" transform="matrix(-1 0 0 1 257 501)" fill="#486BD1"/>
<path d="M292 505L494 505" stroke="#142452" stroke-width="2" stroke-linecap="round"/>
<path d="M292 505L342 505" stroke="#486BD1" stroke-width="2" stroke-linecap="round"/>
<path d="M523.968 507.21C524.048 508.23 525.008 509.16 526.408 509.16C527.908 509.16 528.848 508.14 528.848 506.92C528.848 505.56 527.918 504.76 526.628 504.76C526.168 504.76 525.668 504.92 525.388 505.21L525.788 503.57H528.528V502.52H524.978L524.178 505.79L525.308 506.2C525.538 505.94 525.928 505.75 526.388 505.75C527.048 505.75 527.638 506.15 527.638 506.95C527.638 507.67 527.088 508.13 526.408 508.13C525.658 508.13 525.148 507.61 525.098 506.92L523.968 507.21ZM534.457 502.69C534.177 502.51 533.677 502.37 533.077 502.37C531.067 502.37 529.597 503.79 529.597 506.14C529.597 507.8 530.537 509.15 532.187 509.15C533.547 509.15 534.647 508.25 534.647 506.9C534.647 505.57 533.737 504.71 532.447 504.71C531.757 504.71 531.137 504.96 530.797 505.48C530.907 504.22 531.787 503.41 533.007 503.41C533.537 503.41 533.877 503.54 534.117 503.67L534.457 502.69ZM530.927 506.92C530.927 506.16 531.507 505.71 532.187 505.71C532.867 505.71 533.447 506.16 533.447 506.92C533.447 507.67 532.867 508.13 532.187 508.13C531.527 508.13 530.927 507.66 530.927 506.92ZM535.677 508.26C535.677 508.7 536.037 509.06 536.487 509.06C536.927 509.06 537.297 508.7 537.297 508.26C537.297 507.81 536.927 507.45 536.487 507.45C536.037 507.45 535.677 507.81 535.677 508.26ZM535.667 504.88C535.667 505.32 536.027 505.68 536.477 505.68C536.917 505.68 537.287 505.32 537.287 504.88C537.287 504.43 536.917 504.07 536.477 504.07C536.027 504.07 535.667 504.43 535.667 504.88ZM540.174 506.06C540.274 506.01 540.474 505.95 540.784 505.95C541.334 505.95 541.934 506.27 541.934 507.02C541.934 507.61 541.494 508.12 540.704 508.12C539.984 508.12 539.444 507.61 539.414 506.86L538.244 507.1C538.324 508.18 539.214 509.15 540.714 509.15C542.254 509.15 543.144 508.14 543.144 507.03C543.144 505.78 542.174 505.08 541.204 505.06L542.964 503.52V502.52H538.464V503.57H541.414L539.624 505.17L540.174 506.06ZM543.812 507.21C543.892 508.23 544.852 509.16 546.252 509.16C547.752 509.16 548.692 508.14 548.692 506.92C548.692 505.56 547.762 504.76 546.472 504.76C546.012 504.76 545.512 504.92 545.232 505.21L545.632 503.57H548.372V502.52H544.822L544.022 505.79L545.152 506.2C545.382 505.94 545.772 505.75 546.232 505.75C546.892 505.75 547.482 506.15 547.482 506.95C547.482 507.67 546.932 508.13 546.252 508.13C545.502 508.13 544.992 507.61 544.942 506.92L543.812 507.21Z" fill="#E5E5E5"/>
<g clip-path="url(#clip0)">
<circle cx="393" cy="287" r="186" fill="url(#paint0_linear)"/>
<path fill-rule="evenodd" clip-rule="evenodd" d="M395.005 466.067C395.005 484.613 379.957 499.647 361.395 499.647C342.832 499.647 327.785 484.613 327.785 466.067C327.785 447.52 342.832 432.486 361.395 432.486C379.957 432.486 395.005 447.52 395.005 466.067Z" fill="#9AD190"/>
<path fill-rule="evenodd" clip-rule="evenodd" d="M395.005 466.067C395.005 484.613 379.957 499.647 361.395 499.647C342.832 499.647 327.785 484.613 327.785 466.067C327.785 447.52 342.832 432.486 361.395 432.486C379.957 432.486 395.005 447.52 395.005 466.067Z" fill="#8DBBA5"/>
<path fill-rule="evenodd" clip-rule="evenodd" d="M414.774 427.878C414.774 446.424 399.727 461.458 381.164 461.458C362.602 461.458 347.555 446.424 347.555 427.878C347.555 409.331 362.602 394.297 381.164 394.297C399.727 394.297 414.774 409.331 414.774 427.878Z" fill="#9AD190"/>
<path fill-rule="evenodd" clip-rule="evenodd" d="M414.774 427.878C414.774 446.424 399.727 461.458 381.164 461.458C362.602 461.458 347.555 446.424 347.555 427.878C347.555 409.331 362.602 394.297 381.164 394.297C399.727 394.297 414.774 409.331 414.774 427.878Z" fill="#8DBBA5"/>
<path fill-rule="evenodd" clip-rule="evenodd" d="M484.629 531.17H692.218V319.526H484.629V531.17Z" fill="#D4A3C6"/>
<path fill-rule="evenodd" clip-rule="evenodd" d="M664.706 270.508H420.047V344.419H710.672L664.706 270.508Z" fill="#98567D"/>
<path fill-rule="evenodd" clip-rule="evenodd" d="M486.525 531.91H352.086V320.267L420.622 271.826L486.525 320.267V531.91Z" fill="#DCAFD2"/>
<path fill-rule="evenodd" clip-rule="evenodd" d="M342.433 342.308L335.051 333.032L420.858 264.857L499.61 329.808L492.059 338.948L420.72 280.11L342.433 342.308Z" fill="#76486D"/>
<path fill-rule="evenodd" clip-rule="evenodd" d="M686.402 451.334H496.551C494.957 451.334 494.018 449.549 494.924 448.237L520.497 411.2C520.865 410.666 521.473 410.346 522.124 410.346H663.915C664.605 410.346 665.248 410.706 665.606 411.296L688.093 448.334C688.891 449.651 687.942 451.334 686.402 451.334Z" fill="#98567D"/>
<path fill-rule="evenodd" clip-rule="evenodd" d="M375.562 532.24H463.541V446.313H375.562V532.24Z" fill="#8C736A"/>
<path fill-rule="evenodd" clip-rule="evenodd" d="M466.507 532.24H460.576V449.276H378.529V532.24H372.598V446.313C372.598 444.678 373.924 443.35 375.563 443.35H463.542C465.179 443.35 466.507 444.678 466.507 446.313V532.24Z" fill="#DDDEFE"/>
<path fill-rule="evenodd" clip-rule="evenodd" d="M522.439 398.247H553.192V361.135H522.439V398.247Z" fill="#8DA6DC"/>
<path fill-rule="evenodd" clip-rule="evenodd" d="M525.406 395.284H550.228V364.1H525.406V395.284ZM553.193 401.21H522.44C520.803 401.21 519.475 399.883 519.475 398.247V361.137C519.475 359.501 520.803 358.174 522.44 358.174H553.193C554.832 358.174 556.159 359.501 556.159 361.137V398.247C556.159 399.883 554.832 401.21 553.193 401.21Z" fill="#DDDEFE"/>
<path fill-rule="evenodd" clip-rule="evenodd" d="M520.709 532.57H553.824V463.761H520.709V532.57Z" fill="#9E764F"/>
<path fill-rule="evenodd" clip-rule="evenodd" d="M556.791 532.57H550.86V466.726H523.675V532.57H517.744V463.763C517.744 462.128 519.073 460.8 520.71 460.8H553.825C555.464 460.8 556.791 462.128 556.791 463.763V532.57Z" fill="#FCFCFC"/>
<path fill-rule="evenodd" clip-rule="evenodd" d="M444.686 355.076C443.911 340.907 432.201 329.644 417.824 329.644C403.447 329.644 391.737 340.907 390.962 355.076H390.887V404.667H444.761V355.076H444.686Z" fill="#8DA6DC"/>
<path fill-rule="evenodd" clip-rule="evenodd" d="M393.853 401.704H441.797V355.73L441.726 355.239C441.032 342.549 430.533 332.607 417.825 332.607C405.117 332.607 394.619 342.549 393.923 355.239L393.853 355.742V401.704ZM444.762 407.63H390.887C389.248 407.63 387.922 406.303 387.922 404.667V355.077C387.922 354.78 387.965 354.492 388.046 354.221C389.25 338.723 402.198 326.681 417.825 326.681C433.451 326.681 446.397 338.723 447.601 354.221C447.682 354.492 447.727 354.78 447.727 355.077V404.667C447.727 406.303 446.399 407.63 444.762 407.63Z" fill="#DDDEFE"/>
<path fill-rule="evenodd" clip-rule="evenodd" d="M414.857 403.515H420.789V329.44H414.857V403.515Z" fill="#DDDEFE"/>
<path fill-rule="evenodd" clip-rule="evenodd" d="M391.381 358.411H444.431V352.485H391.381V358.411Z" fill="#DDDEFE"/>
<path fill-rule="evenodd" clip-rule="evenodd" d="M526.807 500.635H547.73V471.992H526.807V500.635Z" fill="#9CC1DC"/>
<path fill-rule="evenodd" clip-rule="evenodd" d="M382.482 532.076H388.85V449.286H382.482V532.076Z" fill="#B99068"/>
<path fill-rule="evenodd" clip-rule="evenodd" d="M382.482 532.076H388.85V449.286H382.482V532.076Z" fill="#A78885"/>
<path fill-rule="evenodd" clip-rule="evenodd" d="M393.805 532.076H400.173V449.286H393.805V532.076Z" fill="#B99068"/>
<path fill-rule="evenodd" clip-rule="evenodd" d="M393.805 532.076H400.173V449.286H393.805V532.076Z" fill="#A78885"/>
<path fill-rule="evenodd" clip-rule="evenodd" d="M405.129 532.076H411.497V449.286H405.129V532.076Z" fill="#B99068"/>
<path fill-rule="evenodd" clip-rule="evenodd" d="M405.129 532.076H411.497V449.286H405.129V532.076Z" fill="#A78885"/>
<path fill-rule="evenodd" clip-rule="evenodd" d="M416.451 532.076H422.819V449.286H416.451V532.076Z" fill="#B99068"/>
<path fill-rule="evenodd" clip-rule="evenodd" d="M416.451 532.076H422.819V449.286H416.451V532.076Z" fill="#A78885"/>
<path fill-rule="evenodd" clip-rule="evenodd" d="M427.771 532.076H434.142V449.286H427.771V532.076Z" fill="#B99068"/>
<path fill-rule="evenodd" clip-rule="evenodd" d="M427.771 532.076H434.142V449.286H427.771V532.076Z" fill="#A78885"/>
<path fill-rule="evenodd" clip-rule="evenodd" d="M439.096 532.076H445.466V449.286H439.096V532.076Z" fill="#B99068"/>
<path fill-rule="evenodd" clip-rule="evenodd" d="M439.096 532.076H445.466V449.286H439.096V532.076Z" fill="#A78885"/>
<path fill-rule="evenodd" clip-rule="evenodd" d="M450.418 532.076H456.788V449.286H450.418V532.076Z" fill="#B99068"/>
<path fill-rule="evenodd" clip-rule="evenodd" d="M450.418 532.076H456.788V449.286H450.418V532.076Z" fill="#A78885"/>
<path fill-rule="evenodd" clip-rule="evenodd" d="M495.516 456.93H687.472V451.004H495.516V456.93Z" fill="#32424F"/>
<path fill-rule="evenodd" clip-rule="evenodd" d="M486.525 349.934H710.625V344.008H486.525V349.934Z" fill="#6C3D62"/>
<path fill-rule="evenodd" clip-rule="evenodd" d="M522.688 378.658H553.498V372.732H522.688V378.658Z" fill="#DDDEFE"/>
<path fill-rule="evenodd" clip-rule="evenodd" d="M666.518 444.338H554.487C552.848 444.338 551.521 443.01 551.521 441.375C551.521 439.739 552.848 438.412 554.487 438.412H666.518C668.157 438.412 669.484 439.739 669.484 441.375C669.484 443.01 668.157 444.338 666.518 444.338Z" fill="#32424F"/>
<path fill-rule="evenodd" clip-rule="evenodd" d="M605.229 432.486H518.569C516.932 432.486 515.604 431.158 515.604 429.523C515.604 427.887 516.932 426.56 518.569 426.56H605.229C606.868 426.56 608.194 427.887 608.194 429.523C608.194 431.158 606.868 432.486 605.229 432.486Z" fill="#32424F"/>
<path fill-rule="evenodd" clip-rule="evenodd" d="M619.729 421.294H549.544C547.905 421.294 546.578 419.966 546.578 418.331C546.578 416.695 547.905 415.368 549.544 415.368H619.729C621.366 415.368 622.694 416.695 622.694 418.331C622.694 419.966 621.366 421.294 619.729 421.294Z" fill="#32424F"/>
<path fill-rule="evenodd" clip-rule="evenodd" d="M540.646 443.68H511.319C509.682 443.68 508.354 442.352 508.354 440.717C508.354 439.081 509.682 437.754 511.319 437.754H540.646C542.283 437.754 543.612 439.081 543.612 440.717C543.612 442.352 542.283 443.68 540.646 443.68Z" fill="#32424F"/>
<path fill-rule="evenodd" clip-rule="evenodd" d="M616.433 334.379H516.593C514.956 334.379 513.627 333.051 513.627 331.416C513.627 329.78 514.956 328.453 516.593 328.453H616.433C618.072 328.453 619.399 329.78 619.399 331.416C619.399 333.051 618.072 334.379 616.433 334.379Z" fill="#6C3D62"/>
<path fill-rule="evenodd" clip-rule="evenodd" d="M633.895 320.221H503.741C502.104 320.221 500.775 318.894 500.775 317.258C500.775 315.623 502.104 314.295 503.741 314.295H633.895C635.534 314.295 636.861 315.623 636.861 317.258C636.861 318.894 635.534 320.221 633.895 320.221Z" fill="#6C3D62"/>
<path fill-rule="evenodd" clip-rule="evenodd" d="M676.075 305.406H508.026C506.387 305.406 505.061 304.079 505.061 302.443C505.061 300.808 506.387 299.48 508.026 299.48H676.075C677.712 299.48 679.04 300.808 679.04 302.443C679.04 304.079 677.712 305.406 676.075 305.406Z" fill="#6C3D62"/>
<path fill-rule="evenodd" clip-rule="evenodd" d="M570.303 292.897H465.848C464.211 292.897 462.883 291.569 462.883 289.934C462.883 288.298 464.211 286.971 465.848 286.971H570.303C571.94 286.971 573.269 288.298 573.269 289.934C573.269 291.569 571.94 292.897 570.303 292.897Z" fill="#6C3D62"/>
<path fill-rule="evenodd" clip-rule="evenodd" d="M655.974 281.373H453.657C452.018 281.373 450.691 280.045 450.691 278.41C450.691 276.774 452.018 275.447 453.657 275.447H655.974C657.612 275.447 658.939 276.774 658.939 278.41C658.939 280.045 657.612 281.373 655.974 281.373Z" fill="#6C3D62"/>
<path opacity="0.9" fill-rule="evenodd" clip-rule="evenodd" d="M312.493 223H351.339C363.307 223 373.008 213.247 373.008 201.216C373.008 189.185 363.307 179.432 351.339 179.432C347.728 179.432 344.323 180.321 341.329 181.891C337.159 169.734 325.679 161 312.17 161C295.139 161 281.334 174.879 281.334 192C281.334 192.351 281.34 192.7 281.351 193.049C276.38 195.734 273 201.01 273 207.081C273 215.873 280.089 223 288.834 223H312.17C312.218 223 312.493 223 312.493 223H312.17H312.493Z" fill="#E9E9F1"/>
<path opacity="0.9" fill-rule="evenodd" clip-rule="evenodd" d="M500.837 246.429H459.216C446.394 246.429 436 235.979 436 223.089C436 210.199 446.394 199.749 459.216 199.749C463.085 199.749 466.734 200.701 469.942 202.384C474.409 189.358 486.709 180 501.184 180C519.43 180 534.222 194.871 534.222 213.214C534.222 213.59 534.216 213.965 534.204 214.338C539.53 217.214 543.152 222.868 543.152 229.373C543.152 238.792 535.556 246.429 526.186 246.429H501.184C501.132 246.429 500.837 246.429 500.837 246.429H501.184H500.837Z" fill="#E9E9F1"/>
</g>
<g filter="url(#filter0_d)">
<rect x="207" y="70" width="62" height="62" rx="31" fill="#D4A547"/>
</g>
<defs>
<filter id="filter0_d" x="137" y="0" width="242" height="242" filterUnits="userSpaceOnUse" color-interpolation-filters="sRGB">
<feFlood flood-opacity="0" result="BackgroundImageFix"/>
<feColorMatrix in="SourceAlpha" type="matrix" values="0 0 0 0 0 0 0 0 0 0 0 0 0 0 0 0 0 0 127 0" result="hardAlpha"/>
<feMorphology radius="10" operator="dilate" in="SourceAlpha" result="effect1_dropShadow"/>
<feOffset dx="20" dy="20"/>
<feGaussianBlur stdDeviation="40"/>
<feComposite in2="hardAlpha" operator="out"/>
<feColorMatrix type="matrix" values="0 0 0 0 0.831373 0 0 0 0 0.647059 0 0 0 0 0.278431 0 0 0 0.5 0"/>
<feBlend mode="normal" in2="BackgroundImageFix" result="effect1_dropShadow"/>
<feBlend mode="normal" in="SourceGraphic" in2="effect1_dropShadow" result="shape"/>
</filter>
<linearGradient id="paint0_linear" x1="123.728" y1="268.856" x2="406.288" y2="614.28" gradientUnits="userSpaceOnUse">
<stop stop-color="#445FE2"/>
<stop offset="1" stop-color="#5385AC"/>
</linearGradient>
<clipPath id="clip0">
<rect width="372" height="372" fill="white" transform="translate(207 101)"/>
</clipPath>
</defs>
</svg>
