<svg width="581" height="372" viewBox="0 0 581 372" fill="none" xmlns="http://www.w3.org/2000/svg">
<rect y="176" width="167" height="128" rx="20" fill="#201317"/>
<path d="M28.316 247.656V246.074H20.182V247.656H23.402V256H25.082V247.656H28.316ZM30.7053 251.996C30.7333 251.128 31.2233 250.456 32.1193 250.456C33.1413 250.456 33.5193 251.128 33.5193 251.968V256H35.1433V251.688C35.1433 250.19 34.3313 248.986 32.6513 248.986C31.9373 248.986 31.1673 249.238 30.7053 249.84V245.864H29.0813V256H30.7053V251.996ZM37.7543 251.842C37.8103 251.114 38.3983 250.33 39.4203 250.33C40.5403 250.33 41.0723 251.044 41.1003 251.842H37.7543ZM41.2823 253.62C41.0583 254.292 40.5543 254.81 39.5743 254.81C38.5663 254.81 37.7543 254.068 37.7123 253.032H42.6963C42.7103 253.004 42.7383 252.78 42.7383 252.514C42.7383 250.358 41.5063 248.972 39.4063 248.972C37.6843 248.972 36.0883 250.4 36.0883 252.556C36.0883 254.866 37.7263 256.21 39.5743 256.21C41.2123 256.21 42.2903 255.244 42.6543 254.054L41.2823 253.62ZM48.3729 256V251.954C48.3729 251.086 48.9189 250.442 49.7869 250.442C50.7109 250.442 51.1029 251.058 51.1029 251.842V256H52.6989V251.954C52.6989 251.114 53.2589 250.442 54.1129 250.442C55.0229 250.442 55.4289 251.044 55.4289 251.842V256H56.9969V251.576C56.9969 249.77 55.8209 248.986 54.5889 248.986C53.7069 248.986 52.9089 249.294 52.3769 250.19C52.0129 249.392 51.2289 248.986 50.3329 248.986C49.5629 248.986 48.7089 249.35 48.3169 250.05V249.182H46.7629V256H48.3729ZM61.4815 254.754C60.4875 254.754 59.5775 253.998 59.5775 252.584C59.5775 251.17 60.4875 250.442 61.4815 250.442C62.4895 250.442 63.3855 251.17 63.3855 252.584C63.3855 254.012 62.4895 254.754 61.4815 254.754ZM61.4815 248.972C59.4515 248.972 57.9535 250.498 57.9535 252.584C57.9535 254.684 59.4515 256.21 61.4815 256.21C63.5255 256.21 65.0235 254.684 65.0235 252.584C65.0235 250.498 63.5255 248.972 61.4815 248.972ZM65.491 254.152C65.575 254.922 66.331 256.21 68.305 256.21C70.041 256.21 70.881 255.062 70.881 254.026C70.881 253.018 70.209 252.234 68.921 251.954L67.885 251.744C67.465 251.66 67.199 251.394 67.199 251.03C67.199 250.61 67.605 250.246 68.179 250.246C69.089 250.246 69.383 250.876 69.439 251.268L70.811 250.876C70.699 250.204 70.083 248.972 68.179 248.972C66.765 248.972 65.673 249.98 65.673 251.17C65.673 252.108 66.303 252.892 67.507 253.158L68.515 253.382C69.061 253.494 69.313 253.774 69.313 254.138C69.313 254.558 68.963 254.922 68.291 254.922C67.423 254.922 66.961 254.376 66.905 253.76L65.491 254.152ZM74.0494 247.096H72.5794V248.118C72.5794 248.72 72.2574 249.182 71.5294 249.182H71.1794V250.624H72.4394V254.054C72.4394 255.328 73.2234 256.084 74.4834 256.084C75.0714 256.084 75.3794 255.972 75.4774 255.93V254.586C75.4074 254.6 75.1414 254.642 74.9174 254.642C74.3154 254.642 74.0494 254.39 74.0494 253.788V250.624H75.4634V249.182H74.0494V247.096ZM81.1873 258.66V255.23C81.5373 255.748 82.2793 256.168 83.2593 256.168C85.2193 256.168 86.4653 254.628 86.4653 252.584C86.4653 250.568 85.3313 249.028 83.3153 249.028C82.2653 249.028 81.4813 249.518 81.1453 250.106V249.182H79.5773V258.66H81.1873ZM84.8413 252.584C84.8413 253.886 84.0853 254.726 83.0073 254.726C81.9433 254.726 81.1733 253.886 81.1733 252.584C81.1733 251.31 81.9433 250.47 83.0073 250.47C84.0993 250.47 84.8413 251.31 84.8413 252.584ZM90.5226 254.754C89.5286 254.754 88.6186 253.998 88.6186 252.584C88.6186 251.17 89.5286 250.442 90.5226 250.442C91.5306 250.442 92.4266 251.17 92.4266 252.584C92.4266 254.012 91.5306 254.754 90.5226 254.754ZM90.5226 248.972C88.4926 248.972 86.9946 250.498 86.9946 252.584C86.9946 254.684 88.4926 256.21 90.5226 256.21C92.5666 256.21 94.0646 254.684 94.0646 252.584C94.0646 250.498 92.5666 248.972 90.5226 248.972ZM96.744 258.66V255.23C97.094 255.748 97.836 256.168 98.816 256.168C100.776 256.168 102.022 254.628 102.022 252.584C102.022 250.568 100.888 249.028 98.872 249.028C97.822 249.028 97.038 249.518 96.702 250.106V249.182H95.134V258.66H96.744ZM100.398 252.584C100.398 253.886 99.642 254.726 98.564 254.726C97.5 254.726 96.73 253.886 96.73 252.584C96.73 251.31 97.5 250.47 98.564 250.47C99.656 250.47 100.398 251.31 100.398 252.584ZM107.48 255.244C107.48 255.524 107.508 255.846 107.536 256H109.09C109.062 255.748 109.02 255.314 109.02 254.754V249.182H107.396V253.214C107.396 254.11 106.906 254.74 105.968 254.74C104.988 254.74 104.596 254.026 104.596 253.186V249.182H102.972V253.48C102.972 254.992 103.924 256.196 105.548 256.196C106.346 256.196 107.144 255.86 107.48 255.244ZM112.246 256V245.864H110.622V256H112.246ZM113.394 254.152C113.394 255.23 114.276 256.21 115.704 256.21C116.81 256.21 117.482 255.65 117.804 255.132C117.804 255.678 117.86 255.958 117.874 256H119.386C119.372 255.93 119.302 255.524 119.302 254.908V251.52C119.302 250.162 118.504 248.972 116.404 248.972C114.724 248.972 113.66 250.022 113.534 251.198L115.018 251.534C115.088 250.848 115.564 250.302 116.418 250.302C117.314 250.302 117.706 250.764 117.706 251.338C117.706 251.576 117.594 251.772 117.202 251.828L115.452 252.094C114.29 252.262 113.394 252.934 113.394 254.152ZM116.012 254.936C115.368 254.936 115.018 254.516 115.018 254.054C115.018 253.494 115.424 253.214 115.928 253.13L117.706 252.864V253.172C117.706 254.502 116.922 254.936 116.012 254.936ZM124.755 249.14C124.685 249.126 124.517 249.098 124.321 249.098C123.425 249.098 122.669 249.532 122.347 250.274V249.182H120.765V256H122.389V252.752C122.389 251.478 122.963 250.75 124.223 250.75C124.391 250.75 124.573 250.764 124.755 250.792V249.14ZM20.448 276.152C20.532 276.922 21.288 278.21 23.262 278.21C24.998 278.21 25.838 277.062 25.838 276.026C25.838 275.018 25.166 274.234 23.878 273.954L22.842 273.744C22.422 273.66 22.156 273.394 22.156 273.03C22.156 272.61 22.562 272.246 23.136 272.246C24.046 272.246 24.34 272.876 24.396 273.268L25.768 272.876C25.656 272.204 25.04 270.972 23.136 270.972C21.722 270.972 20.63 271.98 20.63 273.17C20.63 274.108 21.26 274.892 22.464 275.158L23.472 275.382C24.018 275.494 24.27 275.774 24.27 276.138C24.27 276.558 23.92 276.922 23.248 276.922C22.38 276.922 21.918 276.376 21.862 275.76L20.448 276.152ZM28.5724 278V267.864H26.9484V278H28.5724ZM31.3012 273.842C31.3572 273.114 31.9452 272.33 32.9672 272.33C34.0872 272.33 34.6192 273.044 34.6472 273.842H31.3012ZM34.8292 275.62C34.6052 276.292 34.1012 276.81 33.1212 276.81C32.1132 276.81 31.3012 276.068 31.2592 275.032H36.2432C36.2572 275.004 36.2852 274.78 36.2852 274.514C36.2852 272.358 35.0532 270.972 32.9532 270.972C31.2312 270.972 29.6352 272.4 29.6352 274.556C29.6352 276.866 31.2732 278.21 33.1212 278.21C34.7592 278.21 35.8372 277.244 36.2012 276.054L34.8292 275.62ZM38.4711 273.842C38.5271 273.114 39.1151 272.33 40.1371 272.33C41.2571 272.33 41.7891 273.044 41.8171 273.842H38.4711ZM41.9991 275.62C41.7751 276.292 41.2711 276.81 40.2911 276.81C39.2831 276.81 38.4711 276.068 38.4291 275.032H43.4131C43.4271 275.004 43.4551 274.78 43.4551 274.514C43.4551 272.358 42.2231 270.972 40.1231 270.972C38.4011 270.972 36.8051 272.4 36.8051 274.556C36.8051 276.866 38.4431 278.21 40.2911 278.21C41.9291 278.21 43.0071 277.244 43.3711 276.054L41.9991 275.62ZM46.117 280.66V277.23C46.467 277.748 47.209 278.168 48.189 278.168C50.149 278.168 51.395 276.628 51.395 274.584C51.395 272.568 50.261 271.028 48.245 271.028C47.195 271.028 46.411 271.518 46.075 272.106V271.182H44.507V280.66H46.117ZM49.771 274.584C49.771 275.886 49.015 276.726 47.937 276.726C46.873 276.726 46.103 275.886 46.103 274.584C46.103 273.31 46.873 272.47 47.937 272.47C49.029 272.47 49.771 273.31 49.771 274.584ZM58.3969 272.47C59.4329 272.47 59.8949 273.142 60.0489 273.744L61.5049 273.212C61.2249 272.12 60.2169 270.972 58.3829 270.972C56.4229 270.972 54.8969 272.484 54.8969 274.584C54.8969 276.656 56.4229 278.21 58.4249 278.21C60.2169 278.21 61.2389 277.048 61.5609 275.984L60.1329 275.466C59.9789 275.984 59.4889 276.726 58.4249 276.726C57.4029 276.726 56.5209 275.956 56.5209 274.584C56.5209 273.212 57.4029 272.47 58.3969 272.47ZM62.0421 276.152C62.0421 277.23 62.9241 278.21 64.3521 278.21C65.4581 278.21 66.1301 277.65 66.4521 277.132C66.4521 277.678 66.5081 277.958 66.5221 278H68.0341C68.0201 277.93 67.9501 277.524 67.9501 276.908V273.52C67.9501 272.162 67.1521 270.972 65.0521 270.972C63.3721 270.972 62.3081 272.022 62.1821 273.198L63.6661 273.534C63.7361 272.848 64.2121 272.302 65.0661 272.302C65.9621 272.302 66.3541 272.764 66.3541 273.338C66.3541 273.576 66.2421 273.772 65.8501 273.828L64.1001 274.094C62.9381 274.262 62.0421 274.934 62.0421 276.152ZM64.6601 276.936C64.0161 276.936 63.6661 276.516 63.6661 276.054C63.6661 275.494 64.0721 275.214 64.5761 275.13L66.3541 274.864V275.172C66.3541 276.502 65.5701 276.936 64.6601 276.936ZM71.4439 269.096H69.9739V270.118C69.9739 270.72 69.6519 271.182 68.9239 271.182H68.5739V272.624H69.8339V276.054C69.8339 277.328 70.6179 278.084 71.8779 278.084C72.4659 278.084 72.7739 277.972 72.8719 277.93V276.586C72.8019 276.6 72.5359 276.642 72.3119 276.642C71.7099 276.642 71.4439 276.39 71.4439 275.788V272.624H72.8579V271.182H71.4439V269.096ZM75.0922 273.842C75.1482 273.114 75.7362 272.33 76.7582 272.33C77.8782 272.33 78.4102 273.044 78.4382 273.842H75.0922ZM78.6202 275.62C78.3962 276.292 77.8922 276.81 76.9122 276.81C75.9042 276.81 75.0922 276.068 75.0502 275.032H80.0342C80.0482 275.004 80.0762 274.78 80.0762 274.514C80.0762 272.358 78.8442 270.972 76.7442 270.972C75.0222 270.972 73.4262 272.4 73.4262 274.556C73.4262 276.866 75.0642 278.21 76.9122 278.21C78.5502 278.21 79.6282 277.244 79.9922 276.054L78.6202 275.62ZM80.6381 278.378C80.8201 279.75 82.0801 280.87 83.8861 280.87C86.4481 280.87 87.3861 279.176 87.3861 277.356V271.182H85.8181V272.05C85.5241 271.49 84.8661 271.056 83.8021 271.056C81.9261 271.056 80.6521 272.554 80.6521 274.374C80.6521 276.292 81.9821 277.692 83.8021 277.692C84.7961 277.692 85.4821 277.23 85.7761 276.698V277.412C85.7761 278.798 85.1321 279.456 83.8441 279.456C82.9061 279.456 82.2481 278.826 82.1361 277.986L80.6381 278.378ZM84.0681 276.306C83.0041 276.306 82.2901 275.564 82.2901 274.374C82.2901 273.212 83.0321 272.456 84.0681 272.456C85.0761 272.456 85.8181 273.212 85.8181 274.374C85.8181 275.55 85.1041 276.306 84.0681 276.306ZM91.8683 276.754C90.8743 276.754 89.9643 275.998 89.9643 274.584C89.9643 273.17 90.8743 272.442 91.8683 272.442C92.8763 272.442 93.7723 273.17 93.7723 274.584C93.7723 276.012 92.8763 276.754 91.8683 276.754ZM91.8683 270.972C89.8383 270.972 88.3403 272.498 88.3403 274.584C88.3403 276.684 89.8383 278.21 91.8683 278.21C93.9123 278.21 95.4103 276.684 95.4103 274.584C95.4103 272.498 93.9123 270.972 91.8683 270.972ZM100.47 271.14C100.4 271.126 100.232 271.098 100.036 271.098C99.1397 271.098 98.3837 271.532 98.0617 272.274V271.182H96.4797V278H98.1037V274.752C98.1037 273.478 98.6777 272.75 99.9377 272.75C100.106 272.75 100.288 272.764 100.47 272.792V271.14ZM102.935 278V271.182H101.325V278H102.935ZM101.073 268.788C101.073 269.376 101.549 269.838 102.123 269.838C102.711 269.838 103.187 269.376 103.187 268.788C103.187 268.2 102.711 267.724 102.123 267.724C101.549 267.724 101.073 268.2 101.073 268.788ZM105.664 273.842C105.72 273.114 106.308 272.33 107.33 272.33C108.45 272.33 108.982 273.044 109.01 273.842H105.664ZM109.192 275.62C108.968 276.292 108.464 276.81 107.484 276.81C106.476 276.81 105.664 276.068 105.622 275.032H110.606C110.62 275.004 110.648 274.78 110.648 274.514C110.648 272.358 109.416 270.972 107.316 270.972C105.594 270.972 103.998 272.4 103.998 274.556C103.998 276.866 105.636 278.21 107.484 278.21C109.122 278.21 110.2 277.244 110.564 276.054L109.192 275.62ZM111.098 276.152C111.182 276.922 111.938 278.21 113.912 278.21C115.648 278.21 116.488 277.062 116.488 276.026C116.488 275.018 115.816 274.234 114.528 273.954L113.492 273.744C113.072 273.66 112.806 273.394 112.806 273.03C112.806 272.61 113.212 272.246 113.786 272.246C114.696 272.246 114.99 272.876 115.046 273.268L116.418 272.876C116.306 272.204 115.69 270.972 113.786 270.972C112.372 270.972 111.28 271.98 111.28 273.17C111.28 274.108 111.91 274.892 113.114 275.158L114.122 275.382C114.668 275.494 114.92 275.774 114.92 276.138C114.92 276.558 114.57 276.922 113.898 276.922C113.03 276.922 112.568 276.376 112.512 275.76L111.098 276.152Z" fill="#F7BACF"/>
<path fill-rule="evenodd" clip-rule="evenodd" d="M32 199C29.9638 199 29.7713 202.547 28.5591 203.8C27.3469 205.053 23.5782 203.62 23.0546 205.844C22.5321 208.069 25.9224 208.824 26.3404 210.733C26.7606 212.643 24.6892 215.325 26.4592 216.66C28.2291 217.994 30.1343 214.975 32 214.975C33.8656 214.975 35.7709 217.994 37.5408 216.66C39.3108 215.325 37.2405 212.643 37.6596 210.733C38.0787 208.824 41.4679 208.069 40.9454 205.844C40.4229 203.62 36.6531 205.053 35.442 203.8C34.2297 202.547 34.0361 199 32 199Z" fill="#F7BACF"/>
<g clip-path="url(#clip0)">
<rect x="209" width="372" height="372" rx="186" fill="url(#paint0_linear)"/>
<circle cx="439.285" cy="88.5713" r="31" fill="white"/>
<path d="M266.188 67.1745C173.243 87.4216 169.143 216.91 169.143 216.91V300.818H689.598V94.3524C607.373 94.3524 589.857 192.876 482.772 192.876C364 192.876 347.453 55.1337 266.188 67.1745Z" fill="#EDB9BC"/>
<path d="M609.785 252.432V236.932C609.785 236.932 582.885 216.057 534.499 210.36C496.857 205.928 491.764 235.583 463.642 236.932C410.615 239.475 401.642 194.86 330.785 194.86C275.428 194.86 242.214 245.789 202.357 245.789C175.785 245.789 98.2852 217.003 98.2852 217.003V252.432H609.785Z" fill="url(#paint1_linear)"/>
<path d="M217.857 252.429H585.429V420.925H217.857V252.429Z" fill="url(#paint2_linear)"/>
<rect opacity="0.3" x="204.572" y="274.571" width="372" height="8.85714" fill="url(#paint3_linear)"/>
<rect opacity="0.3" x="217.857" y="296.714" width="372" height="4.42857" fill="url(#paint4_linear)"/>
<path d="M323.877 453.867C406.18 430.013 472.304 453.585 472.962 453.825C473.55 454.043 474.211 453.957 474.728 453.596C475.243 453.234 475.551 452.645 475.551 452.016V434.736C475.551 433.869 474.97 433.108 474.134 432.878C473.919 432.819 467.348 431.062 456.207 429.149V410.039H463.997C465.061 410.039 465.924 409.176 465.924 408.112V395.673C465.924 394.609 465.061 393.747 463.997 393.747H456.207V363.172C458.092 362.455 459.442 360.643 459.442 358.51V337.681H459.47C460.534 337.681 461.397 336.818 461.397 335.754V301.733C461.397 300.669 460.534 299.807 459.47 299.807H435.356C434.292 299.807 433.43 300.669 433.43 301.733V335.754C433.43 336.818 434.292 337.681 435.356 337.681H435.384V358.51C435.384 360.698 436.807 362.543 438.769 363.218V393.747H358.196V363.218C360.158 362.543 361.581 360.698 361.581 358.51V337.681H361.609C362.673 337.681 363.536 336.818 363.536 335.754V301.733C363.536 300.669 362.673 299.807 361.609 299.807H337.495C336.431 299.807 335.568 300.669 335.568 301.733V335.754C335.568 336.818 336.431 337.681 337.495 337.681H337.523V358.51C337.523 360.643 338.873 362.455 340.759 363.172V393.747H332.968C331.904 393.747 331.041 394.609 331.041 395.673V408.112C331.041 409.176 331.904 410.039 332.968 410.039H340.759V429.436C334.839 430.552 328.866 431.849 322.856 433.413C322.007 433.634 321.415 434.401 321.415 435.278V452.016C321.415 452.622 321.7 453.192 322.184 453.556C322.669 453.921 323.298 454.033 323.877 453.867ZM389.345 410.039L377.785 424.878C371.408 425.269 364.865 425.874 358.196 426.713V410.039H389.345ZM408.135 410.039H438.769V426.638C432.957 425.954 426.561 425.354 419.691 424.924L408.135 410.039Z" fill="#DFA2A2"/>
<path d="M472.39 148.593C389.954 172.485 323.723 148.875 323.064 148.635C322.475 148.416 321.813 148.503 321.295 148.865C320.779 149.227 320.471 149.817 320.471 150.447V167.755C320.471 168.624 321.052 169.386 321.89 169.616C322.106 169.675 328.686 171.435 339.846 173.351V192.492H332.043C330.977 192.492 330.113 193.356 330.113 194.422V206.881C330.113 207.947 330.977 208.811 332.043 208.811H339.846V239.435C337.958 240.153 336.606 241.968 336.606 244.105V264.967H336.577C335.512 264.967 334.648 265.831 334.648 266.897V300.973C334.648 302.039 335.512 302.903 336.577 302.903H360.73C361.796 302.903 362.66 302.039 362.66 300.973V266.897C362.66 265.831 361.796 264.967 360.73 264.967H360.702V244.105C360.702 241.913 359.277 240.065 357.312 239.389V208.811H438.016V239.389C436.05 240.065 434.625 241.913 434.625 244.105V264.967H434.597C433.531 264.967 432.667 265.831 432.667 266.897V300.973C432.667 302.039 433.531 302.903 434.597 302.903H458.75C459.816 302.903 460.68 302.039 460.68 300.973V266.897C460.68 265.831 459.816 264.967 458.75 264.967H458.722V244.105C458.722 241.968 457.37 240.153 455.481 239.435V208.811H463.284C464.35 208.811 465.214 207.947 465.214 206.881V194.422C465.214 193.356 464.35 192.492 463.284 192.492H455.481V173.064C461.411 171.946 467.393 170.646 473.413 169.08C474.263 168.859 474.857 168.091 474.857 167.212V150.447C474.857 149.84 474.571 149.269 474.086 148.904C473.601 148.539 472.97 148.427 472.39 148.593ZM406.816 192.492L418.395 177.629C424.782 177.237 431.336 176.631 438.016 175.791V192.492H406.816ZM387.995 192.492H357.312V175.866C363.133 176.551 369.54 177.152 376.421 177.583L387.995 192.492Z" fill="#D6111D"/>
<path d="M478.004 153.974L479.103 148.477C479.376 147.113 478.173 145.907 476.81 146.183C466.403 148.286 429.601 155.236 397.664 155.236C365.723 155.236 328.22 148.284 317.609 146.182C316.231 145.909 315.028 147.146 315.333 148.518L316.344 153.069C316.507 153.802 317.061 154.369 317.797 154.522C324.669 155.946 360.388 162.955 397.664 162.955C434.79 162.955 469.599 156.774 476.512 155.474C477.277 155.33 477.851 154.738 478.004 153.974Z" fill="#323136"/>
<path d="M418.409 177.51L408.76 192.516H386.085L376.436 177.464C376.436 177.464 381.26 178.429 397.664 178.429C413.102 178.429 418.409 177.51 418.409 177.51Z" fill="#323136"/>
<path d="M332.043 192.493H339.846H455.481H463.284C464.35 192.493 465.214 193.357 465.214 194.423V206.882C465.214 207.947 464.35 208.811 463.284 208.811H455.481H339.846H332.043C330.977 208.811 330.113 207.947 330.113 206.882V194.423C330.113 193.357 330.977 192.493 332.043 192.493Z" fill="#F14516"/>
</g>
<rect x="161" y="324" width="48" height="48" rx="24" fill="#201317"/>
<path d="M182.602 351.035C181.88 350.868 181.391 350.999 180.788 350.492C180.114 349.92 180.108 348.959 180.114 348.142C180.108 347.325 180.114 346.365 180.788 345.792C181.462 345.219 181.999 345.452 182.876 345.166C183.747 344.879 184.97 343.102 186.324 343.901C186.872 344.289 187.194 344.921 187.326 346.311" stroke="#F7BACF" stroke-width="1.5" stroke-linecap="round" stroke-linejoin="round"/>
<path d="M187.385 349.115C187.308 351.119 186.962 351.924 186.323 352.378C185.632 352.789 184.969 352.521 184.379 352.121" stroke="#F7BACF" stroke-width="1.5" stroke-linecap="round" stroke-linejoin="round"/>
<path d="M190.523 343.114L180.293 353.344" stroke="#F7BACF" stroke-width="1.5" stroke-linecap="round" stroke-linejoin="round"/>
<defs>
<linearGradient id="paint0_linear" x1="326.357" y1="2.42281e-06" x2="428.214" y2="256.857" gradientUnits="userSpaceOnUse">
<stop stop-color="#FFCBD7"/>
<stop offset="1" stop-color="#F9CBBD"/>
</linearGradient>
<linearGradient id="paint1_linear" x1="352.928" y1="228.071" x2="355.142" y2="316.643" gradientUnits="userSpaceOnUse">
<stop stop-color="#DEA9AC"/>
<stop offset="0.558846" stop-color="#CEA196" stop-opacity="0.06"/>
</linearGradient>
<linearGradient id="paint2_linear" x1="395" y1="470.483" x2="395" y2="217.738" gradientUnits="userSpaceOnUse">
<stop stop-color="#F9BEBD"/>
<stop offset="0.997648" stop-color="#F9CBBD"/>
</linearGradient>
<linearGradient id="paint3_linear" x1="390.572" y1="274.571" x2="390.572" y2="283.007" gradientUnits="userSpaceOnUse">
<stop stop-color="#EFF7FF"/>
<stop offset="0.997648" stop-color="white"/>
</linearGradient>
<linearGradient id="paint4_linear" x1="403.857" y1="296.714" x2="403.857" y2="300.932" gradientUnits="userSpaceOnUse">
<stop stop-color="#EFF7FF"/>
<stop offset="0.997648" stop-color="white"/>
</linearGradient>
<clipPath id="clip0">
<rect x="209" width="372" height="372" rx="186" fill="white"/>
</clipPath>
</defs>
</svg>
