<svg width="579" height="412" viewBox="0 0 579 412" fill="none" xmlns="http://www.w3.org/2000/svg">
<g clip-path="url(#clip0)">
<circle cx="186" cy="226" r="186" fill="url(#paint0_linear)"/>
<path d="M156.21 195.509C148.037 188.748 136.229 194.757 129.872 189.308C121.375 182.025 119.445 180.12 111.685 178.131C104.601 176.314 98.1872 180.424 91.3641 171.326C86.4598 164.787 81.8337 165.449 75.9152 166.902C69.9966 168.355 68.178 166.746 60.2127 160.155C54.9451 155.796 50.1316 154.252 39.2332 154.615C30.0415 154.921 22.8122 152.884 16.0929 150.333C9.63159 164.819 4.94744 180.265 2.36523 196.424C28.6886 199.187 36.6009 197.986 46.8621 201.297C58.1238 204.929 167.593 227.089 169.531 226C171.468 224.91 172.754 207.615 172.754 207.615C161.76 205.628 161.61 199.976 156.21 195.509Z" fill="#36B294"/>
<path d="M156.21 195.509C148.037 188.748 136.229 194.757 129.872 189.308C121.375 182.025 119.445 180.12 111.685 178.131C104.601 176.314 98.1872 180.424 91.3641 171.326C86.4598 164.787 81.8337 165.449 75.9152 166.902C69.9966 168.355 68.178 166.746 60.2127 160.155C54.9451 155.796 50.1316 154.252 39.2332 154.615C30.0415 154.921 22.8122 152.884 16.0929 150.333C9.63159 164.819 4.94744 180.265 2.36523 196.424C28.6886 199.187 36.6009 197.986 46.8621 201.297C58.1238 204.929 167.593 227.089 169.531 226C171.468 224.91 172.754 207.615 172.754 207.615C161.76 205.628 161.61 199.976 156.21 195.509Z" fill="#5D6583" fill-opacity="0.738227"/>
<path d="M306.975 241.271C304.945 241.271 303.303 239.628 303.303 237.602V198.078C303.303 196.052 304.946 194.408 306.975 194.408C309.004 194.408 310.647 196.052 310.647 198.078V237.602C310.647 239.629 309.004 241.271 306.975 241.271Z" fill="#674447"/>
<path d="M306.975 241.271C304.945 241.271 303.303 239.628 303.303 237.602V198.078C303.303 196.052 304.946 194.408 306.975 194.408C309.004 194.408 310.647 196.052 310.647 198.078V237.602C310.647 239.629 309.004 241.271 306.975 241.271Z" fill="#8588A6" fill-opacity="0.469706"/>
<path d="M330.103 194.711C330.103 207.485 319.748 217.84 306.974 217.84C294.201 217.84 283.846 207.485 283.846 194.711C283.846 181.937 294.201 142.671 306.974 142.671C319.748 142.672 330.103 181.937 330.103 194.711Z" fill="#43AB5F"/>
<path d="M330.103 194.711C330.103 207.485 319.748 217.84 306.974 217.84C294.201 217.84 283.846 207.485 283.846 194.711C283.846 181.937 294.201 142.671 306.974 142.671C319.748 142.672 330.103 181.937 330.103 194.711Z" fill="#A0A7C3" fill-opacity="0.398585"/>
<path d="M306.974 142.671C303.767 142.671 300.714 145.149 297.938 149.058H297.938C309.629 149.058 319.107 184.997 319.107 196.688C319.107 206.858 311.93 215.337 302.368 217.375C303.857 217.676 305.396 217.84 306.973 217.84C319.747 217.84 330.102 207.485 330.102 194.711C330.102 181.937 319.747 142.671 306.974 142.671Z" fill="#71BE63"/>
<path d="M306.974 142.671C303.767 142.671 300.714 145.149 297.938 149.058H297.938C309.629 149.058 319.107 184.997 319.107 196.688C319.107 206.858 311.93 215.337 302.368 217.375C303.857 217.676 305.396 217.84 306.973 217.84C319.747 217.84 330.102 207.485 330.102 194.711C330.102 181.937 319.747 142.671 306.974 142.671Z" fill="#A0A7C3" fill-opacity="0.45"/>
<path opacity="0.299991" d="M119.371 87.2263C119.371 80.3661 124.932 74.805 131.792 74.805C132.828 74.805 133.818 74.9684 134.779 75.2075C138.02 71.7069 142.616 69.4814 147.763 69.4814C157.563 69.4814 165.508 77.4264 165.508 87.2263H119.371Z" fill="white"/>
<path d="M191.724 220.188C186.834 220.188 186.019 215.352 185.539 214.375C180.188 203.477 173.709 208.563 163.079 208.563C154.769 208.563 153.07 196.453 148.432 196.938C143.793 197.422 136.321 205.172 129.878 202.75C120.633 199.274 120.343 194.031 111.324 191.125C103.365 188.56 96.6357 190.398 92.7697 185.313C85.2432 175.409 79.8209 186.221 68.031 179.5C56.0405 172.665 52.3118 185.313 43.293 185.313C33.8179 185.313 37.1077 173.688 24.7387 173.688C17.7318 173.688 13.602 182.232 4.73937 184.648C1.67327 197.953 0 211.78 0 226C0 233.332 0.478078 240.551 1.31508 247.661C4.15957 250.301 7.23511 252.622 10.3194 253.947C21.3769 258.695 253.57 262.775 253.57 262.775V243.438C236.562 243.438 236.562 231.813 222.647 231.813C203.9 231.813 205.639 220.188 191.724 220.188Z" fill="#59928E"/>
<path d="M77.7422 355L249.937 262.774L245.578 253.367C203.884 253.367 131.533 210.983 0 225.999C0 272.33 16.9783 314.669 45.0018 347.231C62.6035 351.435 77.7422 355 77.7422 355Z" fill="#739A8F"/>
<path d="M245.578 253.367C207.345 253.367 143.292 217.759 31.502 223.424C130.892 223.509 191.843 268 223.055 268L231.774 264.748L245.838 253.928L245.578 253.367Z" fill="#87ADA2"/>
<path opacity="0.9" d="M192.132 99.8979C193.686 99.8979 195.173 100.144 196.617 100.502C201.482 95.2472 204.254 91.9058 216.109 91.9058C227.963 91.9058 238.895 101.778 239.4 112.683C239.905 123.588 235.609 127.993 198.712 127.993C175.316 127.993 175.316 120.601 175.316 112.683C175.316 104.765 184.231 99.8979 192.132 99.8979Z" fill="url(#paint1_linear)"/>
<path d="M16.4688 302.496C45.6446 367.052 110.552 412 186 412C288.725 412 372 328.725 372 226C372 224.059 371.913 222.139 371.854 220.212C256.834 220.74 204.677 301.563 16.4688 301.563V302.496Z" fill="#71BE63"/>
<path d="M16.4688 302.496C45.6446 367.052 110.552 412 186 412C288.725 412 372 328.725 372 226C372 224.059 371.913 222.139 371.854 220.212C256.834 220.74 204.677 301.563 16.4688 301.563V302.496Z" fill="#477468"/>
<path d="M253.574 264.748C251.271 264.748 249.406 262.884 249.406 260.584V215.733C249.406 213.434 251.271 211.569 253.574 211.569C255.877 211.569 257.741 213.434 257.741 215.733V260.584C257.741 262.884 255.876 264.748 253.574 264.748Z" fill="#674447"/>
<path d="M253.574 264.748C251.271 264.748 249.406 262.884 249.406 260.584V215.733C249.406 213.434 251.271 211.569 253.574 211.569C255.877 211.569 257.741 213.434 257.741 215.733V260.584C257.741 262.884 255.876 264.748 253.574 264.748Z" fill="#8588A6" fill-opacity="0.469706"/>
<path d="M279.817 211.913C279.817 226.408 268.067 238.159 253.572 238.159C239.077 238.159 227.326 226.408 227.326 211.913C227.326 197.418 239.077 152.859 253.572 152.859C268.067 152.859 279.817 197.417 279.817 211.913Z" fill="#43AB5F"/>
<path d="M279.817 211.913C279.817 226.408 268.067 238.159 253.572 238.159C239.077 238.159 227.326 226.408 227.326 211.913C227.326 197.418 239.077 152.859 253.572 152.859C268.067 152.859 279.817 197.417 279.817 211.913Z" fill="#A0A7C3" fill-opacity="0.398585"/>
<path d="M253.57 152.859C249.932 152.859 246.467 155.672 243.316 160.108H243.317C256.584 160.108 267.339 200.89 267.339 214.157C267.339 225.697 259.195 235.318 248.344 237.633C250.033 237.974 251.78 238.159 253.57 238.159C268.065 238.159 279.816 226.409 279.816 211.914C279.817 197.417 268.065 152.859 253.57 152.859Z" fill="#71BE63"/>
<path d="M253.57 152.859C249.932 152.859 246.467 155.672 243.316 160.108H243.317C256.584 160.108 267.339 200.89 267.339 214.157C267.339 225.697 259.195 235.318 248.344 237.633C250.033 237.974 251.78 238.159 253.57 238.159C268.065 238.159 279.816 226.409 279.816 211.914C279.817 197.417 268.065 152.859 253.57 152.859Z" fill="#A0A7C3" fill-opacity="0.45"/>
<path opacity="0.800059" fill-rule="evenodd" clip-rule="evenodd" d="M107.972 41.4906C107.882 40.7623 108.4 40.0995 109.128 40.01C109.857 39.9206 110.519 40.4385 110.609 41.1668L116.006 85.1224C116.095 85.8507 115.577 86.5136 114.849 86.603C114.121 86.6924 113.458 86.1745 113.369 85.4462L107.972 41.4906ZM262.066 52.2022C261.337 52.2916 260.819 52.9545 260.909 53.6828L265.226 88.8473C265.316 89.5756 265.979 90.0935 266.707 90.004C267.435 89.9146 267.953 89.2517 267.864 88.5234L263.546 53.359C263.457 52.6307 262.794 52.1128 262.066 52.2022ZM266.243 214.705C265.515 214.794 264.997 215.457 265.086 216.185L269.404 251.35C269.493 252.078 270.156 252.596 270.885 252.506C271.613 252.417 272.131 251.754 272.041 251.026L267.724 215.861C267.634 215.133 266.971 214.615 266.243 214.705ZM11.8211 199.633C11.0928 199.722 10.5749 200.385 10.6643 201.113L12.8232 218.696C12.9126 219.424 13.5755 219.942 14.3037 219.852C15.032 219.763 15.5499 219.1 15.4605 218.372L13.3017 200.789C13.2123 200.061 12.5494 199.543 11.8211 199.633ZM128.631 256.377C128.542 255.649 129.06 254.986 129.788 254.896C130.516 254.807 131.179 255.325 131.268 256.053L133.967 278.031C134.056 278.759 133.538 279.422 132.81 279.512C132.082 279.601 131.419 279.083 131.33 278.355L128.631 256.377ZM58.295 371.161C57.5667 371.251 57.0488 371.914 57.1383 372.642L59.8368 394.62C59.9262 395.348 60.5891 395.866 61.3174 395.777C62.0457 395.687 62.5636 395.024 62.4741 394.296L59.7756 372.318C59.6862 371.59 59.0233 371.072 58.295 371.161ZM309.986 145.051C309.897 144.323 310.415 143.66 311.143 143.571C311.871 143.481 312.534 143.999 312.624 144.727L313.163 149.123C313.253 149.851 312.735 150.514 312.007 150.603C311.278 150.693 310.615 150.175 310.526 149.447L309.986 145.051ZM320.241 228.567C320.151 227.839 320.669 227.176 321.397 227.086C322.126 226.997 322.789 227.515 322.878 228.243L323.418 232.639C323.507 233.367 322.989 234.03 322.261 234.119C321.533 234.209 320.87 233.691 320.78 232.963L320.241 228.567ZM178.286 90.4278C177.558 90.5172 177.04 91.1801 177.129 91.9084L177.669 96.3039C177.758 97.0322 178.421 97.5501 179.149 97.4607C179.878 97.3713 180.396 96.7084 180.306 95.9801L179.766 91.5845C179.677 90.8562 179.014 90.3383 178.286 90.4278ZM188.54 173.944C187.811 174.033 187.294 174.696 187.383 175.424L187.923 179.82C188.012 180.548 188.675 181.066 189.403 180.976C190.132 180.887 190.649 180.224 190.56 179.496L190.02 175.1C189.931 174.372 189.268 173.854 188.54 173.944ZM43.4741 102.284C42.7458 102.374 42.2279 103.036 42.3173 103.765L47.7144 147.72C47.8038 148.449 48.4667 148.967 49.195 148.877C49.9232 148.788 50.4411 148.125 50.3517 147.397L44.9546 103.441C44.8652 102.713 44.2023 102.195 43.4741 102.284ZM203.677 199.349C202.949 199.438 202.431 200.101 202.52 200.83L204.139 214.016C204.229 214.744 204.892 215.262 205.62 215.173C206.348 215.084 206.866 214.421 206.777 213.692L205.158 200.506C205.068 199.777 204.405 199.26 203.677 199.349ZM247.558 99.1204C247.469 98.3921 247.987 97.7293 248.715 97.6398C249.443 97.5504 250.106 98.0683 250.196 98.7966L251.815 111.983C251.904 112.712 251.386 113.374 250.658 113.464C249.93 113.553 249.267 113.035 249.177 112.307L247.558 99.1204ZM333.487 105.639C333.398 104.911 333.916 104.248 334.644 104.158C335.372 104.069 336.035 104.587 336.125 105.315L338.823 127.293C338.913 128.021 338.395 128.684 337.666 128.774C336.938 128.863 336.275 128.345 336.186 127.617L333.487 105.639ZM342.662 180.364C342.573 179.635 343.091 178.972 343.819 178.883C344.547 178.794 345.21 179.312 345.299 180.04L347.998 202.018C348.087 202.746 347.57 203.409 346.841 203.498C346.113 203.588 345.45 203.07 345.361 202.341L342.662 180.364ZM362.169 328.332C361.441 328.422 360.923 329.084 361.013 329.813L363.711 351.791C363.8 352.519 364.463 353.037 365.192 352.947C365.92 352.858 366.438 352.195 366.348 351.467L363.65 329.489C363.56 328.761 362.898 328.243 362.169 328.332ZM281.616 391.252C281.527 390.523 282.044 389.86 282.773 389.771C283.501 389.682 284.164 390.2 284.253 390.928L286.952 412.906C287.041 413.634 286.523 414.297 285.795 414.386C285.067 414.476 284.404 413.958 284.315 413.229L281.616 391.252Z" fill="url(#paint2_linear)"/>
<path opacity="0.9" d="M96.5213 132.55H127.088C136.505 132.55 144.139 124.887 144.139 115.434C144.139 105.982 136.505 98.3186 127.088 98.3186C124.247 98.3186 121.567 99.0164 119.211 100.251C115.931 90.6983 106.897 83.8359 96.2667 83.8359C82.8661 83.8359 72.0028 94.741 72.0028 108.193C72.0028 108.469 72.0074 108.743 72.0164 109.017C68.1047 111.127 65.445 115.273 65.445 120.043C65.445 126.95 71.0235 132.55 77.9048 132.55H96.2667C96.305 132.55 96.5213 132.55 96.5213 132.55H96.2667H96.5213Z" fill="url(#paint3_linear)"/>
</g>
<rect x="372" y="332" width="80" height="80" rx="40" fill="#13201C"/>
<path fill-rule="evenodd" clip-rule="evenodd" d="M419.007 371.704C419.007 369.849 409.604 363.917 408.537 364.984C407.473 366.05 407.368 377.257 408.537 378.424C409.709 379.595 419.007 373.558 419.007 371.704Z" fill="#4D7F71"/>
<rect x="311" width="62" height="62" rx="31" fill="#14151F"/>
<path d="M346.438 28.7563C347.273 30.2704 347.273 32.1181 346.438 33.6269" stroke="#A0A3C3" stroke-width="1.5" stroke-linecap="round" stroke-linejoin="round"/>
<path fill-rule="evenodd" clip-rule="evenodd" d="M337.112 31.1917C337.109 32.0042 337.112 32.9571 337.782 33.5265C338.453 34.0966 338.986 33.8614 339.854 34.147C340.723 34.4332 341.939 36.1979 343.283 35.4009C344.01 34.8848 344.352 33.9105 344.352 31.1917C344.352 28.4729 344.025 27.5094 343.283 26.9825C341.939 26.1861 340.723 27.9508 339.854 28.2365C338.986 28.5227 338.453 28.2874 337.782 28.8569C337.112 29.4264 337.109 30.3793 337.112 31.1917Z" stroke="#A0A3C3" stroke-width="1.5" stroke-linecap="round" stroke-linejoin="round"/>
<rect x="414" y="144" width="165" height="168" rx="20" fill="#13201C"/>
<path d="M436.31 180.03C436.31 177.636 437.962 176.446 439.628 176.446C441.308 176.446 442.96 177.636 442.96 180.03C442.96 182.424 441.308 183.614 439.628 183.614C437.962 183.614 436.31 182.424 436.31 180.03ZM434.588 180.03C434.588 183.292 437.024 185.21 439.628 185.21C442.232 185.21 444.682 183.292 444.682 180.03C444.682 176.782 442.232 174.864 439.628 174.864C437.024 174.864 434.588 176.782 434.588 180.03ZM450.254 184.244C450.254 184.524 450.282 184.846 450.31 185H451.864C451.836 184.748 451.794 184.314 451.794 183.754V178.182H450.17V182.214C450.17 183.11 449.68 183.74 448.742 183.74C447.762 183.74 447.37 183.026 447.37 182.186V178.182H445.746V182.48C445.746 183.992 446.698 185.196 448.322 185.196C449.12 185.196 449.918 184.86 450.254 184.244ZM457.386 178.14C457.316 178.126 457.148 178.098 456.952 178.098C456.056 178.098 455.3 178.532 454.978 179.274V178.182H453.396V185H455.02V181.752C455.02 180.478 455.594 179.75 456.854 179.75C457.022 179.75 457.204 179.764 457.386 179.792V178.14ZM460.585 183.152C460.669 183.922 461.425 185.21 463.399 185.21C465.135 185.21 465.975 184.062 465.975 183.026C465.975 182.018 465.303 181.234 464.015 180.954L462.979 180.744C462.559 180.66 462.293 180.394 462.293 180.03C462.293 179.61 462.699 179.246 463.273 179.246C464.183 179.246 464.477 179.876 464.533 180.268L465.905 179.876C465.793 179.204 465.177 177.972 463.273 177.972C461.859 177.972 460.767 178.98 460.767 180.17C460.767 181.108 461.397 181.892 462.601 182.158L463.609 182.382C464.155 182.494 464.407 182.774 464.407 183.138C464.407 183.558 464.057 183.922 463.385 183.922C462.517 183.922 462.055 183.376 461.999 182.76L460.585 183.152ZM470.04 183.754C469.046 183.754 468.136 182.998 468.136 181.584C468.136 180.17 469.046 179.442 470.04 179.442C471.048 179.442 471.944 180.17 471.944 181.584C471.944 183.012 471.048 183.754 470.04 183.754ZM470.04 177.972C468.01 177.972 466.512 179.498 466.512 181.584C466.512 183.684 468.01 185.21 470.04 185.21C472.084 185.21 473.582 183.684 473.582 181.584C473.582 179.498 472.084 177.972 470.04 177.972ZM477.648 183.754C476.654 183.754 475.744 182.998 475.744 181.584C475.744 180.17 476.654 179.442 477.648 179.442C478.656 179.442 479.552 180.17 479.552 181.584C479.552 183.012 478.656 183.754 477.648 183.754ZM477.648 177.972C475.618 177.972 474.12 179.498 474.12 181.584C474.12 183.684 475.618 185.21 477.648 185.21C479.692 185.21 481.19 183.684 481.19 181.584C481.19 179.498 479.692 177.972 477.648 177.972ZM484.276 176.096H482.806V177.118C482.806 177.72 482.484 178.182 481.756 178.182H481.406V179.624H482.666V183.054C482.666 184.328 483.45 185.084 484.71 185.084C485.298 185.084 485.606 184.972 485.704 184.93V183.586C485.634 183.6 485.368 183.642 485.144 183.642C484.542 183.642 484.276 183.39 484.276 182.788V179.624H485.69V178.182H484.276V176.096ZM488.291 180.996C488.319 180.128 488.809 179.456 489.705 179.456C490.727 179.456 491.105 180.128 491.105 180.968V185H492.729V180.688C492.729 179.19 491.917 177.986 490.237 177.986C489.523 177.986 488.753 178.238 488.291 178.84V174.864H486.667V185H488.291V180.996ZM495.816 185V178.182H494.206V185H495.816ZM493.954 175.788C493.954 176.376 494.43 176.838 495.004 176.838C495.592 176.838 496.068 176.376 496.068 175.788C496.068 175.2 495.592 174.724 495.004 174.724C494.43 174.724 493.954 175.2 493.954 175.788ZM499.035 181.066C499.035 180.17 499.525 179.456 500.449 179.456C501.471 179.456 501.849 180.128 501.849 180.968V185H503.473V180.688C503.473 179.19 502.675 177.986 501.009 177.986C500.253 177.986 499.441 178.308 498.993 179.092V178.182H497.411V185H499.035V181.066ZM504.46 185.378C504.642 186.75 505.902 187.87 507.708 187.87C510.27 187.87 511.208 186.176 511.208 184.356V178.182H509.64V179.05C509.346 178.49 508.688 178.056 507.624 178.056C505.748 178.056 504.474 179.554 504.474 181.374C504.474 183.292 505.804 184.692 507.624 184.692C508.618 184.692 509.304 184.23 509.598 183.698V184.412C509.598 185.798 508.954 186.456 507.666 186.456C506.728 186.456 506.07 185.826 505.958 184.986L504.46 185.378ZM507.89 183.306C506.826 183.306 506.112 182.564 506.112 181.374C506.112 180.212 506.854 179.456 507.89 179.456C508.898 179.456 509.64 180.212 509.64 181.374C509.64 182.55 508.926 183.306 507.89 183.306ZM515.065 183.152C515.149 183.922 515.905 185.21 517.879 185.21C519.615 185.21 520.455 184.062 520.455 183.026C520.455 182.018 519.783 181.234 518.495 180.954L517.459 180.744C517.039 180.66 516.773 180.394 516.773 180.03C516.773 179.61 517.179 179.246 517.753 179.246C518.663 179.246 518.957 179.876 519.013 180.268L520.385 179.876C520.273 179.204 519.657 177.972 517.753 177.972C516.339 177.972 515.247 178.98 515.247 180.17C515.247 181.108 515.877 181.892 517.081 182.158L518.089 182.382C518.635 182.494 518.887 182.774 518.887 183.138C518.887 183.558 518.537 183.922 517.865 183.922C516.997 183.922 516.535 183.376 516.479 182.76L515.065 183.152ZM523.19 185V174.864H521.566V185H523.19ZM525.918 180.842C525.974 180.114 526.562 179.33 527.584 179.33C528.704 179.33 529.236 180.044 529.264 180.842H525.918ZM529.446 182.62C529.222 183.292 528.718 183.81 527.738 183.81C526.73 183.81 525.918 183.068 525.876 182.032H530.86C530.874 182.004 530.902 181.78 530.902 181.514C530.902 179.358 529.67 177.972 527.57 177.972C525.848 177.972 524.252 179.4 524.252 181.556C524.252 183.866 525.89 185.21 527.738 185.21C529.376 185.21 530.454 184.244 530.818 183.054L529.446 182.62ZM533.088 180.842C533.144 180.114 533.732 179.33 534.754 179.33C535.874 179.33 536.406 180.044 536.434 180.842H533.088ZM536.616 182.62C536.392 183.292 535.888 183.81 534.908 183.81C533.9 183.81 533.088 183.068 533.046 182.032H538.03C538.044 182.004 538.072 181.78 538.072 181.514C538.072 179.358 536.84 177.972 534.74 177.972C533.018 177.972 531.422 179.4 531.422 181.556C531.422 183.866 533.06 185.21 534.908 185.21C536.546 185.21 537.624 184.244 537.988 183.054L536.616 182.62ZM540.734 187.66V184.23C541.084 184.748 541.826 185.168 542.806 185.168C544.766 185.168 546.012 183.628 546.012 181.584C546.012 179.568 544.878 178.028 542.862 178.028C541.812 178.028 541.028 178.518 540.692 179.106V178.182H539.124V187.66H540.734ZM544.388 181.584C544.388 182.886 543.632 183.726 542.554 183.726C541.49 183.726 540.72 182.886 540.72 181.584C540.72 180.31 541.49 179.47 542.554 179.47C543.646 179.47 544.388 180.31 544.388 181.584ZM434.448 215.152C434.532 215.922 435.288 217.21 437.262 217.21C438.998 217.21 439.838 216.062 439.838 215.026C439.838 214.018 439.166 213.234 437.878 212.954L436.842 212.744C436.422 212.66 436.156 212.394 436.156 212.03C436.156 211.61 436.562 211.246 437.136 211.246C438.046 211.246 438.34 211.876 438.396 212.268L439.768 211.876C439.656 211.204 439.04 209.972 437.136 209.972C435.722 209.972 434.63 210.98 434.63 212.17C434.63 213.108 435.26 213.892 436.464 214.158L437.472 214.382C438.018 214.494 438.27 214.774 438.27 215.138C438.27 215.558 437.92 215.922 437.248 215.922C436.38 215.922 435.918 215.376 435.862 214.76L434.448 215.152ZM443.903 215.754C442.909 215.754 441.999 214.998 441.999 213.584C441.999 212.17 442.909 211.442 443.903 211.442C444.911 211.442 445.807 212.17 445.807 213.584C445.807 215.012 444.911 215.754 443.903 215.754ZM443.903 209.972C441.873 209.972 440.375 211.498 440.375 213.584C440.375 215.684 441.873 217.21 443.903 217.21C445.947 217.21 447.445 215.684 447.445 213.584C447.445 211.498 445.947 209.972 443.903 209.972ZM452.912 216.244C452.912 216.524 452.94 216.846 452.968 217H454.522C454.494 216.748 454.452 216.314 454.452 215.754V210.182H452.828V214.214C452.828 215.11 452.338 215.74 451.4 215.74C450.42 215.74 450.028 215.026 450.028 214.186V210.182H448.404V214.48C448.404 215.992 449.356 217.196 450.98 217.196C451.778 217.196 452.576 216.86 452.912 216.244ZM457.678 213.066C457.678 212.17 458.168 211.456 459.092 211.456C460.114 211.456 460.492 212.128 460.492 212.968V217H462.116V212.688C462.116 211.19 461.318 209.986 459.652 209.986C458.896 209.986 458.084 210.308 457.636 211.092V210.182H456.054V217H457.678V213.066ZM464.685 213.57C464.685 212.268 465.469 211.442 466.533 211.442C467.597 211.442 468.325 212.254 468.325 213.556C468.325 214.858 467.583 215.74 466.519 215.74C465.413 215.74 464.685 214.872 464.685 213.57ZM469.893 206.864H468.311V210.98C468.101 210.546 467.499 210 466.309 210C464.391 210 463.061 211.61 463.061 213.57C463.061 215.628 464.377 217.168 466.337 217.168C467.303 217.168 468.017 216.692 468.339 216.118C468.339 216.398 468.381 216.846 468.409 217H469.963C469.949 216.888 469.893 216.37 469.893 215.754V206.864ZM470.913 215.152C470.997 215.922 471.753 217.21 473.727 217.21C475.463 217.21 476.303 216.062 476.303 215.026C476.303 214.018 475.631 213.234 474.343 212.954L473.307 212.744C472.887 212.66 472.621 212.394 472.621 212.03C472.621 211.61 473.027 211.246 473.601 211.246C474.511 211.246 474.805 211.876 474.861 212.268L476.233 211.876C476.121 211.204 475.505 209.972 473.601 209.972C472.187 209.972 471.095 210.98 471.095 212.17C471.095 213.108 471.725 213.892 472.929 214.158L473.937 214.382C474.483 214.494 474.735 214.774 474.735 215.138C474.735 215.558 474.385 215.922 473.713 215.922C472.845 215.922 472.383 215.376 472.327 214.76L470.913 215.152ZM484.376 210.14C484.306 210.126 484.138 210.098 483.942 210.098C483.046 210.098 482.29 210.532 481.968 211.274V210.182H480.386V217H482.01V213.752C482.01 212.478 482.584 211.75 483.844 211.75C484.012 211.75 484.194 211.764 484.376 211.792V210.14ZM484.825 215.152C484.825 216.23 485.707 217.21 487.135 217.21C488.241 217.21 488.913 216.65 489.235 216.132C489.235 216.678 489.291 216.958 489.305 217H490.817C490.803 216.93 490.733 216.524 490.733 215.908V212.52C490.733 211.162 489.935 209.972 487.835 209.972C486.155 209.972 485.091 211.022 484.965 212.198L486.449 212.534C486.519 211.848 486.995 211.302 487.849 211.302C488.745 211.302 489.137 211.764 489.137 212.338C489.137 212.576 489.025 212.772 488.633 212.828L486.883 213.094C485.721 213.262 484.825 213.934 484.825 215.152ZM487.443 215.936C486.799 215.936 486.449 215.516 486.449 215.054C486.449 214.494 486.855 214.214 487.359 214.13L489.137 213.864V214.172C489.137 215.502 488.353 215.936 487.443 215.936ZM493.82 213.066C493.82 212.17 494.31 211.456 495.234 211.456C496.256 211.456 496.634 212.128 496.634 212.968V217H498.258V212.688C498.258 211.19 497.46 209.986 495.794 209.986C495.038 209.986 494.226 210.308 493.778 211.092V210.182H492.196V217H493.82V213.066ZM499.246 217.378C499.428 218.75 500.688 219.87 502.494 219.87C505.056 219.87 505.994 218.176 505.994 216.356V210.182H504.426V211.05C504.132 210.49 503.474 210.056 502.41 210.056C500.534 210.056 499.26 211.554 499.26 213.374C499.26 215.292 500.59 216.692 502.41 216.692C503.404 216.692 504.09 216.23 504.384 215.698V216.412C504.384 217.798 503.74 218.456 502.452 218.456C501.514 218.456 500.856 217.826 500.744 216.986L499.246 217.378ZM502.676 215.306C501.612 215.306 500.898 214.564 500.898 213.374C500.898 212.212 501.64 211.456 502.676 211.456C503.684 211.456 504.426 212.212 504.426 213.374C504.426 214.55 503.712 215.306 502.676 215.306ZM508.614 212.842C508.67 212.114 509.258 211.33 510.28 211.33C511.4 211.33 511.932 212.044 511.96 212.842H508.614ZM512.142 214.62C511.918 215.292 511.414 215.81 510.434 215.81C509.426 215.81 508.614 215.068 508.572 214.032H513.556C513.57 214.004 513.598 213.78 513.598 213.514C513.598 211.358 512.366 209.972 510.266 209.972C508.544 209.972 506.948 211.4 506.948 213.556C506.948 215.866 508.586 217.21 510.434 217.21C512.072 217.21 513.15 216.244 513.514 215.054L512.142 214.62ZM520.646 208.25C520.954 208.25 521.136 208.292 521.234 208.32V206.934C521.122 206.878 520.786 206.794 520.38 206.794C518.98 206.794 518 207.718 518 209.244V210.182H516.81V211.596H518V217H519.638V211.596H521.22V210.182H519.638V209.286C519.638 208.446 520.212 208.25 520.646 208.25ZM526.007 210.14C525.937 210.126 525.769 210.098 525.573 210.098C524.677 210.098 523.921 210.532 523.599 211.274V210.182H522.017V217H523.641V213.752C523.641 212.478 524.215 211.75 525.475 211.75C525.643 211.75 525.825 211.764 526.007 211.792V210.14ZM529.79 215.754C528.796 215.754 527.886 214.998 527.886 213.584C527.886 212.17 528.796 211.442 529.79 211.442C530.798 211.442 531.694 212.17 531.694 213.584C531.694 215.012 530.798 215.754 529.79 215.754ZM529.79 209.972C527.76 209.972 526.262 211.498 526.262 213.584C526.262 215.684 527.76 217.21 529.79 217.21C531.834 217.21 533.332 215.684 533.332 213.584C533.332 211.498 531.834 209.972 529.79 209.972ZM536.012 217V212.954C536.012 212.086 536.558 211.442 537.426 211.442C538.35 211.442 538.742 212.058 538.742 212.842V217H540.338V212.954C540.338 212.114 540.898 211.442 541.752 211.442C542.662 211.442 543.068 212.044 543.068 212.842V217H544.636V212.576C544.636 210.77 543.46 209.986 542.228 209.986C541.346 209.986 540.548 210.294 540.016 211.19C539.652 210.392 538.868 209.986 537.972 209.986C537.202 209.986 536.348 210.35 535.956 211.05V210.182H534.402V217H536.012ZM437.108 240.096H435.638V241.118C435.638 241.72 435.316 242.182 434.588 242.182H434.238V243.624H435.498V247.054C435.498 248.328 436.282 249.084 437.542 249.084C438.13 249.084 438.438 248.972 438.536 248.93V247.586C438.466 247.6 438.2 247.642 437.976 247.642C437.374 247.642 437.108 247.39 437.108 246.788V243.624H438.522V242.182H437.108V240.096ZM441.123 244.996C441.151 244.128 441.641 243.456 442.537 243.456C443.559 243.456 443.937 244.128 443.937 244.968V249H445.561V244.688C445.561 243.19 444.749 241.986 443.069 241.986C442.355 241.986 441.585 242.238 441.123 242.84V238.864H439.499V249H441.123V244.996ZM450.034 247.754C449.04 247.754 448.13 246.998 448.13 245.584C448.13 244.17 449.04 243.442 450.034 243.442C451.042 243.442 451.938 244.17 451.938 245.584C451.938 247.012 451.042 247.754 450.034 247.754ZM450.034 241.972C448.004 241.972 446.506 243.498 446.506 245.584C446.506 247.684 448.004 249.21 450.034 249.21C452.078 249.21 453.576 247.684 453.576 245.584C453.576 243.498 452.078 241.972 450.034 241.972ZM454.044 247.152C454.128 247.922 454.884 249.21 456.858 249.21C458.594 249.21 459.434 248.062 459.434 247.026C459.434 246.018 458.762 245.234 457.474 244.954L456.438 244.744C456.018 244.66 455.752 244.394 455.752 244.03C455.752 243.61 456.158 243.246 456.732 243.246C457.642 243.246 457.936 243.876 457.992 244.268L459.364 243.876C459.252 243.204 458.636 241.972 456.732 241.972C455.318 241.972 454.226 242.98 454.226 244.17C454.226 245.108 454.856 245.892 456.06 246.158L457.068 246.382C457.614 246.494 457.866 246.774 457.866 247.138C457.866 247.558 457.516 247.922 456.844 247.922C455.976 247.922 455.514 247.376 455.458 246.76L454.044 247.152ZM461.637 244.842C461.693 244.114 462.281 243.33 463.303 243.33C464.423 243.33 464.955 244.044 464.983 244.842H461.637ZM465.165 246.62C464.941 247.292 464.437 247.81 463.457 247.81C462.449 247.81 461.637 247.068 461.595 246.032H466.579C466.593 246.004 466.621 245.78 466.621 245.514C466.621 243.358 465.389 241.972 463.289 241.972C461.567 241.972 459.971 243.4 459.971 245.556C459.971 247.866 461.609 249.21 463.457 249.21C465.095 249.21 466.173 248.244 466.537 247.054L465.165 246.62ZM473.67 240.25C473.978 240.25 474.16 240.292 474.258 240.32V238.934C474.146 238.878 473.81 238.794 473.404 238.794C472.004 238.794 471.024 239.718 471.024 241.244V242.182H469.834V243.596H471.024V249H472.662V243.596H474.244V242.182H472.662V241.286C472.662 240.446 473.236 240.25 473.67 240.25ZM477.831 247.754C476.837 247.754 475.927 246.998 475.927 245.584C475.927 244.17 476.837 243.442 477.831 243.442C478.839 243.442 479.735 244.17 479.735 245.584C479.735 247.012 478.839 247.754 477.831 247.754ZM477.831 241.972C475.801 241.972 474.303 243.498 474.303 245.584C474.303 247.684 475.801 249.21 477.831 249.21C479.875 249.21 481.373 247.684 481.373 245.584C481.373 243.498 479.875 241.972 477.831 241.972ZM486.84 248.244C486.84 248.524 486.868 248.846 486.896 249H488.45C488.422 248.748 488.38 248.314 488.38 247.754V242.182H486.756V246.214C486.756 247.11 486.266 247.74 485.328 247.74C484.348 247.74 483.956 247.026 483.956 246.186V242.182H482.332V246.48C482.332 247.992 483.284 249.196 484.908 249.196C485.706 249.196 486.504 248.86 486.84 248.244ZM491.606 245.066C491.606 244.17 492.096 243.456 493.02 243.456C494.042 243.456 494.42 244.128 494.42 244.968V249H496.044V244.688C496.044 243.19 495.246 241.986 493.58 241.986C492.824 241.986 492.012 242.308 491.564 243.092V242.182H489.982V249H491.606V245.066ZM498.613 245.57C498.613 244.268 499.397 243.442 500.461 243.442C501.525 243.442 502.253 244.254 502.253 245.556C502.253 246.858 501.511 247.74 500.447 247.74C499.341 247.74 498.613 246.872 498.613 245.57ZM503.821 238.864H502.239V242.98C502.029 242.546 501.427 242 500.237 242C498.319 242 496.989 243.61 496.989 245.57C496.989 247.628 498.305 249.168 500.265 249.168C501.231 249.168 501.945 248.692 502.267 248.118C502.267 248.398 502.309 248.846 502.337 249H503.891C503.877 248.888 503.821 248.37 503.821 247.754V238.864ZM510.025 249V242.182H508.415V249H510.025ZM508.163 239.788C508.163 240.376 508.639 240.838 509.213 240.838C509.801 240.838 510.277 240.376 510.277 239.788C510.277 239.2 509.801 238.724 509.213 238.724C508.639 238.724 508.163 239.2 508.163 239.788ZM513.244 245.066C513.244 244.17 513.734 243.456 514.658 243.456C515.68 243.456 516.058 244.128 516.058 244.968V249H517.682V244.688C517.682 243.19 516.884 241.986 515.218 241.986C514.462 241.986 513.65 242.308 513.202 243.092V242.182H511.62V249H513.244V245.066ZM436.674 277.066C436.674 276.17 437.164 275.456 438.088 275.456C439.11 275.456 439.488 276.128 439.488 276.968V281H441.112V276.688C441.112 275.19 440.314 273.986 438.648 273.986C437.892 273.986 437.08 274.308 436.632 275.092V274.182H435.05V281H436.674V277.066ZM442.169 279.152C442.169 280.23 443.051 281.21 444.479 281.21C445.585 281.21 446.257 280.65 446.579 280.132C446.579 280.678 446.635 280.958 446.649 281H448.161C448.147 280.93 448.077 280.524 448.077 279.908V276.52C448.077 275.162 447.279 273.972 445.179 273.972C443.499 273.972 442.435 275.022 442.309 276.198L443.793 276.534C443.863 275.848 444.339 275.302 445.193 275.302C446.089 275.302 446.481 275.764 446.481 276.338C446.481 276.576 446.369 276.772 445.977 276.828L444.227 277.094C443.065 277.262 442.169 277.934 442.169 279.152ZM444.787 279.936C444.143 279.936 443.793 279.516 443.793 279.054C443.793 278.494 444.199 278.214 444.703 278.13L446.481 277.864V278.172C446.481 279.502 445.697 279.936 444.787 279.936ZM451.571 272.096H450.101V273.118C450.101 273.72 449.779 274.182 449.051 274.182H448.701V275.624H449.961V279.054C449.961 280.328 450.745 281.084 452.005 281.084C452.593 281.084 452.901 280.972 452.999 280.93V279.586C452.929 279.6 452.663 279.642 452.439 279.642C451.837 279.642 451.571 279.39 451.571 278.788V275.624H452.985V274.182H451.571V272.096ZM458.605 280.244C458.605 280.524 458.633 280.846 458.661 281H460.215C460.187 280.748 460.145 280.314 460.145 279.754V274.182H458.521V278.214C458.521 279.11 458.031 279.74 457.093 279.74C456.113 279.74 455.721 279.026 455.721 278.186V274.182H454.097V278.48C454.097 279.992 455.049 281.196 456.673 281.196C457.471 281.196 458.269 280.86 458.605 280.244ZM465.737 274.14C465.667 274.126 465.499 274.098 465.303 274.098C464.407 274.098 463.651 274.532 463.329 275.274V274.182H461.747V281H463.371V277.752C463.371 276.478 463.945 275.75 465.205 275.75C465.373 275.75 465.555 275.764 465.737 275.792V274.14ZM467.659 276.842C467.715 276.114 468.303 275.33 469.325 275.33C470.445 275.33 470.977 276.044 471.005 276.842H467.659ZM471.187 278.62C470.963 279.292 470.459 279.81 469.479 279.81C468.471 279.81 467.659 279.068 467.617 278.032H472.601C472.615 278.004 472.643 277.78 472.643 277.514C472.643 275.358 471.411 273.972 469.311 273.972C467.589 273.972 465.993 275.4 465.993 277.556C465.993 279.866 467.631 281.21 469.479 281.21C471.117 281.21 472.195 280.244 472.559 279.054L471.187 278.62Z" fill="#4D7F71"/>
<defs>
<linearGradient id="paint0_linear" x1="487.511" y1="354.244" x2="372" y2="-17.7555" gradientUnits="userSpaceOnUse">
<stop stop-color="#A098C5"/>
<stop offset="1" stop-color="#A0A7C3"/>
</linearGradient>
<linearGradient id="paint1_linear" x1="193.636" y1="59.4272" x2="152.956" y2="140.795" gradientUnits="userSpaceOnUse">
<stop stop-color="white"/>
<stop offset="1" stop-color="white" stop-opacity="0.01"/>
</linearGradient>
<linearGradient id="paint2_linear" x1="87.0432" y1="42.6111" x2="112.293" y2="255.914" gradientUnits="userSpaceOnUse">
<stop stop-color="#BAC1F7"/>
<stop offset="1" stop-color="#F1F1F1" stop-opacity="0.501584"/>
</linearGradient>
<linearGradient id="paint3_linear" x1="79.9635" y1="-15.3074" x2="157.271" y2="125.331" gradientUnits="userSpaceOnUse">
<stop stop-color="white"/>
<stop offset="1" stop-color="white" stop-opacity="0.01"/>
</linearGradient>
<clipPath id="clip0">
<rect width="372" height="372" fill="white" transform="translate(0 40)"/>
</clipPath>
</defs>
</svg>
